<svg width="361" height="176" viewBox="0 0 361 176" fill="none" xmlns="http://www.w3.org/2000/svg">
<rect x="0.75" y="0.75" width="172" height="79.5" rx="9.25" fill="#21211F"/>
<rect x="0.75" y="0.75" width="172" height="79.5" rx="9.25" stroke="#FFAA00" stroke-width="1.5" stroke-dasharray="2 2"/>
<circle cx="21" cy="21" r="6" fill="#FFAA00"/>
<path d="M152.5 16C152.5 15.4477 152.948 15 153.5 15C154.052 15 154.5 15.4477 154.5 16V24C154.5 24.5523 154.052 25 153.5 25C152.948 25 152.5 24.5523 152.5 24V16Z" fill="#C2C1BB"/>
<path d="M149.5 21C148.948 21 148.5 20.5523 148.5 20C148.5 19.4477 148.948 19 149.5 19H157.5C158.052 19 158.5 19.4477 158.5 20C158.5 20.5523 158.052 21 157.5 21H149.5Z" fill="#C2C1BB"/>
<path d="M18.5068 46.7646L20.4893 39.0469H21.5283L21.4121 41.0361L19.293 49H18.2129L18.5068 46.7646ZM17.0234 39.0469L18.6299 46.7031L18.7734 49H17.625L15.3213 39.0469H17.0234ZM23.7773 46.6826L25.3633 39.0469H27.0723L24.7686 49H23.6201L23.7773 46.6826ZM21.9316 39.0469L23.8936 46.7852L24.1807 49H23.1006L21.0156 41.0361L20.9062 39.0469H21.9316ZM31.8372 47.5166V43.9893C31.8372 43.7249 31.7893 43.4971 31.6936 43.3057C31.5979 43.1143 31.4521 42.9661 31.2561 42.8613C31.0647 42.7565 30.8232 42.7041 30.5315 42.7041C30.2626 42.7041 30.0302 42.7497 29.8343 42.8408C29.6383 42.932 29.4856 43.055 29.3763 43.21C29.2669 43.3649 29.2122 43.5404 29.2122 43.7363H27.5716C27.5716 43.4447 27.6422 43.1621 27.7835 42.8887C27.9248 42.6152 28.1298 42.3714 28.3987 42.1572C28.6676 41.943 28.9889 41.7744 29.3626 41.6514C29.7363 41.5283 30.1555 41.4668 30.6204 41.4668C31.1764 41.4668 31.6686 41.5602 32.097 41.7471C32.5299 41.9339 32.8694 42.2165 33.1155 42.5947C33.3662 42.9684 33.4915 43.4378 33.4915 44.0029V47.291C33.4915 47.6283 33.5143 47.9313 33.5598 48.2002C33.61 48.4645 33.6806 48.6947 33.7718 48.8906V49H32.0833C32.0058 48.8223 31.9443 48.5967 31.8987 48.3232C31.8577 48.0452 31.8372 47.7764 31.8372 47.5166ZM32.0764 44.502L32.0901 45.5205H30.9075C30.6022 45.5205 30.3333 45.5501 30.1009 45.6094C29.8684 45.6641 29.6748 45.7461 29.5198 45.8555C29.3649 45.9648 29.2486 46.097 29.1712 46.252C29.0937 46.4069 29.055 46.5824 29.055 46.7783C29.055 46.9743 29.1005 47.1543 29.1917 47.3184C29.2828 47.4779 29.415 47.6032 29.5882 47.6943C29.7659 47.7855 29.9801 47.8311 30.2307 47.8311C30.568 47.8311 30.8619 47.7627 31.1126 47.626C31.3678 47.4847 31.5683 47.3138 31.7141 47.1133C31.86 46.9082 31.9374 46.7145 31.9466 46.5322L32.4798 47.2637C32.4251 47.4505 32.3317 47.651 32.1995 47.8652C32.0673 48.0794 31.8942 48.2845 31.68 48.4805C31.4703 48.6719 31.2174 48.8291 30.9212 48.9521C30.6295 49.0752 30.2923 49.1367 29.9095 49.1367C29.4264 49.1367 28.9957 49.041 28.6175 48.8496C28.2392 48.6536 27.943 48.3916 27.7288 48.0635C27.5146 47.7308 27.4075 47.3548 27.4075 46.9355C27.4075 46.5436 27.4804 46.1973 27.6263 45.8965C27.7766 45.5911 27.9954 45.3359 28.2825 45.1309C28.5742 44.9258 28.9296 44.7708 29.3489 44.666C29.7682 44.5566 30.2467 44.502 30.7845 44.502H32.0764ZM36.5884 43.0117V49H34.941V41.6035H36.5132L36.5884 43.0117ZM38.8511 41.5557L38.8375 43.0869C38.7372 43.0687 38.6278 43.055 38.5093 43.0459C38.3954 43.0368 38.2815 43.0322 38.1675 43.0322C37.885 43.0322 37.6366 43.0732 37.4224 43.1553C37.2082 43.2327 37.0282 43.3467 36.8824 43.4971C36.7411 43.6429 36.6317 43.8206 36.5543 44.0303C36.4768 44.2399 36.4312 44.4746 36.4175 44.7344L36.0416 44.7617C36.0416 44.2969 36.0871 43.8662 36.1783 43.4697C36.2694 43.0732 36.4061 42.7246 36.5884 42.4238C36.7753 42.123 37.0077 41.8883 37.2857 41.7197C37.5683 41.5511 37.8941 41.4668 38.2632 41.4668C38.3635 41.4668 38.4706 41.4759 38.5845 41.4941C38.703 41.5124 38.7919 41.5329 38.8511 41.5557ZM41.2508 43.1074V49H39.6034V41.6035H41.1551L41.2508 43.1074ZM40.9842 45.0283L40.4237 45.0215C40.4237 44.5111 40.4875 44.0394 40.6151 43.6064C40.7427 43.1735 40.9295 42.7975 41.1756 42.4785C41.4217 42.1549 41.7271 41.9066 42.0916 41.7334C42.4608 41.5557 42.8869 41.4668 43.37 41.4668C43.7072 41.4668 44.0148 41.5169 44.2928 41.6172C44.5754 41.7129 44.8192 41.8656 45.0243 42.0752C45.2339 42.2848 45.3934 42.5537 45.5028 42.8818C45.6167 43.21 45.6737 43.6064 45.6737 44.0713V49H44.0262V44.2148C44.0262 43.8548 43.9715 43.5723 43.8621 43.3672C43.7573 43.1621 43.6047 43.0163 43.4041 42.9297C43.2082 42.8385 42.9735 42.793 42.7 42.793C42.3901 42.793 42.1258 42.8522 41.9071 42.9707C41.6929 43.0892 41.5174 43.251 41.3807 43.4561C41.244 43.6611 41.1437 43.8981 41.0799 44.167C41.0161 44.4359 40.9842 44.723 40.9842 45.0283ZM45.5711 44.5908L44.7987 44.7617C44.7987 44.3151 44.8602 43.8936 44.9832 43.4971C45.1108 43.096 45.2954 42.7451 45.537 42.4443C45.783 42.139 46.0861 41.8997 46.4461 41.7266C46.8062 41.5534 47.2186 41.4668 47.6834 41.4668C48.0617 41.4668 48.3989 41.5192 48.6952 41.624C48.9959 41.7243 49.2511 41.8838 49.4608 42.1025C49.6704 42.3213 49.8299 42.6061 49.9393 42.957C50.0487 43.3034 50.1034 43.7227 50.1034 44.2148V49H48.4491V44.208C48.4491 43.8343 48.3944 43.5449 48.285 43.3398C48.1802 43.1348 48.0298 42.9935 47.8338 42.916C47.6379 42.834 47.4032 42.793 47.1297 42.793C46.8745 42.793 46.6489 42.8408 46.453 42.9365C46.2616 43.0277 46.0998 43.1576 45.9676 43.3262C45.8355 43.4902 45.7352 43.6794 45.6668 43.8936C45.603 44.1077 45.5711 44.3402 45.5711 44.5908ZM54.8341 44.0918V45.4043H51.2179V44.0918H54.8341ZM60.4467 47.2568V41.6035H62.101V49H60.5424L60.4467 47.2568ZM60.6791 45.7188L61.2328 45.7051C61.2328 46.2018 61.1781 46.6598 61.0687 47.0791C60.9594 47.4938 60.7908 47.8561 60.5629 48.166C60.335 48.4714 60.0434 48.7106 59.6879 48.8838C59.3324 49.0524 58.9063 49.1367 58.4096 49.1367C58.0495 49.1367 57.7191 49.0843 57.4184 48.9795C57.1176 48.8747 56.8578 48.7129 56.6391 48.4941C56.4249 48.2754 56.2585 47.9906 56.14 47.6396C56.0215 47.2887 55.9623 46.8695 55.9623 46.3818V41.6035H57.6098V46.3955C57.6098 46.6644 57.6417 46.89 57.7055 47.0723C57.7693 47.25 57.8559 47.3936 57.9652 47.5029C58.0746 47.6123 58.2022 47.6898 58.348 47.7354C58.4939 47.7809 58.6488 47.8037 58.8129 47.8037C59.2823 47.8037 59.6514 47.7126 59.9203 47.5303C60.1937 47.3434 60.3874 47.0928 60.5014 46.7783C60.6199 46.4639 60.6791 46.1107 60.6791 45.7188ZM65.1637 43.0254V51.8438H63.5163V41.6035H65.0339L65.1637 43.0254ZM69.9831 45.2334V45.377C69.9831 45.9147 69.9193 46.4137 69.7917 46.874C69.6686 47.3298 69.4841 47.7285 69.238 48.0703C68.9964 48.4076 68.6979 48.6696 68.3425 48.8564C67.987 49.0433 67.5768 49.1367 67.112 49.1367C66.6517 49.1367 66.2484 49.0524 65.902 48.8838C65.5602 48.7106 65.2708 48.4668 65.0339 48.1523C64.7969 47.8379 64.6055 47.4688 64.4596 47.0449C64.3184 46.6165 64.2181 46.1471 64.1589 45.6367V45.083C64.2181 44.5407 64.3184 44.0485 64.4596 43.6064C64.6055 43.1644 64.7969 42.7839 65.0339 42.4648C65.2708 42.1458 65.5602 41.8997 65.902 41.7266C66.2438 41.5534 66.6426 41.4668 67.0983 41.4668C67.5632 41.4668 67.9756 41.5579 68.3356 41.7402C68.6957 41.918 68.9987 42.1732 69.2448 42.5059C69.4909 42.834 69.6755 43.2305 69.7985 43.6953C69.9216 44.1556 69.9831 44.6683 69.9831 45.2334ZM68.3356 45.377V45.2334C68.3356 44.8916 68.3037 44.5749 68.2399 44.2832C68.1761 43.987 68.0759 43.7272 67.9391 43.5039C67.8024 43.2806 67.627 43.1074 67.4128 42.9844C67.2031 42.8568 66.9502 42.793 66.654 42.793C66.3623 42.793 66.1117 42.8431 65.902 42.9434C65.6924 43.0391 65.5169 43.1735 65.3757 43.3467C65.2344 43.5199 65.125 43.7227 65.0475 43.9551C64.9701 44.1829 64.9154 44.4313 64.8835 44.7002V46.0264C64.9382 46.3545 65.0316 46.6553 65.1637 46.9287C65.2959 47.2021 65.4828 47.4209 65.7243 47.585C65.9704 47.7445 66.2848 47.8242 66.6677 47.8242C66.9639 47.8242 67.2168 47.7604 67.4264 47.6328C67.6361 47.5052 67.807 47.3298 67.9391 47.1064C68.0759 46.8786 68.1761 46.6165 68.2399 46.3203C68.3037 46.0241 68.3356 45.7096 68.3356 45.377Z" fill="white"/>
<path d="M17.0801 60.9395L16.2129 60.7168L16.6406 56.4688H21.0176V57.4707H17.5605L17.3027 59.791C17.459 59.7012 17.6562 59.6172 17.8945 59.5391C18.1367 59.4609 18.4141 59.4219 18.7266 59.4219C19.1211 59.4219 19.4746 59.4902 19.7871 59.627C20.0996 59.7598 20.3652 59.9512 20.584 60.2012C20.8066 60.4512 20.9766 60.752 21.0938 61.1035C21.2109 61.4551 21.2695 61.8477 21.2695 62.2812C21.2695 62.6914 21.2129 63.0684 21.0996 63.4121C20.9902 63.7559 20.8242 64.0566 20.6016 64.3145C20.3789 64.5684 20.0977 64.7656 19.7578 64.9062C19.4219 65.0469 19.0254 65.1172 18.5684 65.1172C18.2246 65.1172 17.8984 65.0703 17.5898 64.9766C17.2852 64.8789 17.0117 64.7324 16.7695 64.5371C16.5312 64.3379 16.3359 64.0918 16.1836 63.7988C16.0352 63.502 15.9414 63.1543 15.9023 62.7559H16.9336C16.9805 63.0762 17.0742 63.3457 17.2148 63.5645C17.3555 63.7832 17.5391 63.9492 17.7656 64.0625C17.9961 64.1719 18.2637 64.2266 18.5684 64.2266C18.8262 64.2266 19.0547 64.1816 19.2539 64.0918C19.4531 64.002 19.6211 63.873 19.7578 63.7051C19.8945 63.5371 19.998 63.334 20.0684 63.0957C20.1426 62.8574 20.1797 62.5898 20.1797 62.293C20.1797 62.0234 20.1426 61.7734 20.0684 61.543C19.9941 61.3125 19.8828 61.1113 19.7344 60.9395C19.5898 60.7676 19.4121 60.6348 19.2012 60.541C18.9902 60.4434 18.748 60.3945 18.4746 60.3945C18.1113 60.3945 17.8359 60.4434 17.6484 60.541C17.4648 60.6387 17.2754 60.7715 17.0801 60.9395ZM26.1509 59.9199V65H25.061V58.6602H26.0923L26.1509 59.9199ZM25.9282 61.5898L25.4243 61.5723C25.4282 61.1387 25.4848 60.7383 25.5942 60.3711C25.7036 60 25.8657 59.6777 26.0805 59.4043C26.2954 59.1309 26.563 58.9199 26.8833 58.7715C27.2036 58.6191 27.5747 58.543 27.9966 58.543C28.2934 58.543 28.5669 58.5859 28.8169 58.6719C29.0669 58.7539 29.2837 58.8848 29.4673 59.0645C29.6509 59.2441 29.7934 59.4746 29.895 59.7559C29.9966 60.0371 30.0473 60.377 30.0473 60.7754V65H28.9634V60.8281C28.9634 60.4961 28.9067 60.2305 28.7934 60.0312C28.6841 59.832 28.5278 59.6875 28.3247 59.5977C28.1216 59.5039 27.8833 59.457 27.6098 59.457C27.2895 59.457 27.022 59.5137 26.8071 59.627C26.5923 59.7402 26.4204 59.8965 26.2915 60.0957C26.1626 60.2949 26.0688 60.5234 26.0102 60.7812C25.9555 61.0352 25.9282 61.3047 25.9282 61.5898ZM30.0356 60.9922L29.3091 61.2148C29.313 60.8672 29.3696 60.5332 29.479 60.2129C29.5923 59.8926 29.7544 59.6074 29.9653 59.3574C30.1802 59.1074 30.4438 58.9102 30.7563 58.7656C31.0688 58.6172 31.4263 58.543 31.8286 58.543C32.1684 58.543 32.4692 58.5879 32.7309 58.6777C32.9966 58.7676 33.2192 58.9062 33.3989 59.0938C33.5825 59.2773 33.7212 59.5137 33.8149 59.8027C33.9087 60.0918 33.9555 60.4355 33.9555 60.834V65H32.8657V60.8223C32.8657 60.4668 32.8091 60.1914 32.6958 59.9961C32.5864 59.7969 32.4302 59.6582 32.227 59.5801C32.0278 59.498 31.7895 59.457 31.5122 59.457C31.2739 59.457 31.063 59.498 30.8794 59.5801C30.6958 59.6621 30.5415 59.7754 30.4165 59.9199C30.2915 60.0605 30.1958 60.2227 30.1294 60.4062C30.0669 60.5898 30.0356 60.7852 30.0356 60.9922ZM36.5339 58.6602V65H35.4441V58.6602H36.5339ZM35.362 56.9785C35.362 56.8027 35.4148 56.6543 35.5202 56.5332C35.6296 56.4121 35.7898 56.3516 36.0007 56.3516C36.2077 56.3516 36.3659 56.4121 36.4753 56.5332C36.5886 56.6543 36.6452 56.8027 36.6452 56.9785C36.6452 57.1465 36.5886 57.291 36.4753 57.4121C36.3659 57.5293 36.2077 57.5879 36.0007 57.5879C35.7898 57.5879 35.6296 57.5293 35.5202 57.4121C35.4148 57.291 35.362 57.1465 35.362 56.9785ZM39.1181 60.0137V65H38.0341V58.6602H39.0595L39.1181 60.0137ZM38.8603 61.5898L38.4091 61.5723C38.413 61.1387 38.4775 60.7383 38.6025 60.3711C38.7275 60 38.9033 59.6777 39.1298 59.4043C39.3564 59.1309 39.6259 58.9199 39.9384 58.7715C40.2548 58.6191 40.6045 58.543 40.9873 58.543C41.2998 58.543 41.581 58.5859 41.831 58.6719C42.081 58.7539 42.2939 58.8867 42.4697 59.0703C42.6494 59.2539 42.7861 59.4922 42.8798 59.7852C42.9736 60.0742 43.0205 60.4277 43.0205 60.8457V65H41.9306V60.834C41.9306 60.502 41.8818 60.2363 41.7841 60.0371C41.6865 59.834 41.5439 59.6875 41.3564 59.5977C41.1689 59.5039 40.9384 59.457 40.665 59.457C40.3955 59.457 40.1494 59.5137 39.9267 59.627C39.708 59.7402 39.5185 59.8965 39.3584 60.0957C39.2021 60.2949 39.0791 60.5234 38.9892 60.7812C38.9033 61.0352 38.8603 61.3047 38.8603 61.5898ZM44.4445 64.4258C44.4445 64.2422 44.5012 64.0879 44.6145 63.9629C44.7316 63.834 44.8996 63.7695 45.1184 63.7695C45.3371 63.7695 45.5031 63.834 45.6164 63.9629C45.7336 64.0879 45.7922 64.2422 45.7922 64.4258C45.7922 64.6055 45.7336 64.7578 45.6164 64.8828C45.5031 65.0078 45.3371 65.0703 45.1184 65.0703C44.8996 65.0703 44.7316 65.0078 44.6145 64.8828C44.5012 64.7578 44.4445 64.6055 44.4445 64.4258Z" fill="#C2C1BB"/>
<rect x="188.25" y="95.75" width="172" height="79.5" rx="9.25" fill="#21211F"/>
<rect x="188.25" y="95.75" width="172" height="79.5" rx="9.25" stroke="#E40505" stroke-width="1.5" stroke-dasharray="2 2"/>
<circle cx="208.5" cy="116" r="6" fill="#E40505"/>
<path d="M340 111C340 110.448 340.448 110 341 110C341.552 110 342 110.448 342 111V119C342 119.552 341.552 120 341 120C340.448 120 340 119.552 340 119V111Z" fill="#C2C1BB"/>
<path d="M337 116C336.448 116 336 115.552 336 115C336 114.448 336.448 114 337 114H345C345.552 114 346 114.448 346 115C346 115.552 345.552 116 345 116H337Z" fill="#C2C1BB"/>
<path d="M205.344 134.047V144H203.628V134.047H205.344ZM208.666 138.183V144H207.019V136.604H208.571L208.666 138.183ZM208.372 140.028L207.839 140.021C207.844 139.497 207.917 139.017 208.058 138.579C208.204 138.142 208.404 137.766 208.659 137.451C208.919 137.137 209.229 136.895 209.589 136.727C209.949 136.553 210.35 136.467 210.792 136.467C211.148 136.467 211.469 136.517 211.756 136.617C212.048 136.713 212.296 136.87 212.501 137.089C212.711 137.308 212.87 137.592 212.98 137.943C213.089 138.29 213.144 138.716 213.144 139.222V144H211.49V139.215C211.49 138.859 211.437 138.579 211.332 138.374C211.232 138.164 211.084 138.016 210.888 137.93C210.697 137.839 210.457 137.793 210.17 137.793C209.888 137.793 209.635 137.852 209.411 137.971C209.188 138.089 208.999 138.251 208.844 138.456C208.694 138.661 208.577 138.898 208.495 139.167C208.413 139.436 208.372 139.723 208.372 140.028ZM217.936 136.604V137.807H213.766V136.604H217.936ZM214.969 134.792H216.617V141.956C216.617 142.184 216.649 142.359 216.712 142.482C216.781 142.601 216.874 142.681 216.993 142.722C217.111 142.763 217.25 142.783 217.41 142.783C217.524 142.783 217.633 142.776 217.738 142.763C217.843 142.749 217.927 142.735 217.991 142.722L217.998 143.979C217.861 144.021 217.701 144.057 217.519 144.089C217.341 144.121 217.136 144.137 216.904 144.137C216.526 144.137 216.191 144.071 215.899 143.938C215.607 143.802 215.379 143.581 215.215 143.275C215.051 142.97 214.969 142.564 214.969 142.059V134.792ZM222.188 144.137C221.641 144.137 221.147 144.048 220.705 143.87C220.267 143.688 219.894 143.435 219.584 143.111C219.278 142.788 219.044 142.407 218.88 141.97C218.716 141.532 218.634 141.061 218.634 140.555V140.281C218.634 139.702 218.718 139.178 218.887 138.709C219.055 138.24 219.29 137.839 219.591 137.506C219.891 137.169 220.247 136.911 220.657 136.733C221.067 136.556 221.512 136.467 221.99 136.467C222.519 136.467 222.981 136.556 223.378 136.733C223.774 136.911 224.102 137.162 224.362 137.485C224.626 137.804 224.822 138.185 224.95 138.627C225.082 139.069 225.148 139.557 225.148 140.09V140.794H219.433V139.611H223.521V139.481C223.512 139.185 223.453 138.907 223.344 138.647C223.239 138.388 223.077 138.178 222.858 138.019C222.639 137.859 222.348 137.779 221.983 137.779C221.71 137.779 221.466 137.839 221.252 137.957C221.042 138.071 220.867 138.237 220.725 138.456C220.584 138.675 220.475 138.939 220.397 139.249C220.324 139.554 220.288 139.898 220.288 140.281V140.555C220.288 140.878 220.331 141.179 220.418 141.457C220.509 141.73 220.641 141.97 220.814 142.175C220.987 142.38 221.197 142.542 221.443 142.66C221.689 142.774 221.97 142.831 222.284 142.831C222.681 142.831 223.034 142.751 223.344 142.592C223.653 142.432 223.922 142.207 224.15 141.915L225.018 142.756C224.859 142.988 224.652 143.212 224.396 143.426C224.141 143.635 223.829 143.806 223.46 143.938C223.095 144.071 222.671 144.137 222.188 144.137ZM227.808 138.012V144H226.16V136.604H227.733L227.808 138.012ZM230.07 136.556L230.057 138.087C229.956 138.069 229.847 138.055 229.729 138.046C229.615 138.037 229.501 138.032 229.387 138.032C229.104 138.032 228.856 138.073 228.642 138.155C228.428 138.233 228.248 138.347 228.102 138.497C227.96 138.643 227.851 138.821 227.774 139.03C227.696 139.24 227.651 139.475 227.637 139.734L227.261 139.762C227.261 139.297 227.306 138.866 227.398 138.47C227.489 138.073 227.625 137.725 227.808 137.424C227.995 137.123 228.227 136.888 228.505 136.72C228.788 136.551 229.113 136.467 229.483 136.467C229.583 136.467 229.69 136.476 229.804 136.494C229.922 136.512 230.011 136.533 230.07 136.556ZM233.352 142.694L235.163 136.604H236.872L234.302 144H233.236L233.352 142.694ZM231.964 136.604L233.81 142.722L233.899 144H232.832L230.248 136.604H231.964ZM241.672 142.517V138.989C241.672 138.725 241.624 138.497 241.528 138.306C241.432 138.114 241.286 137.966 241.091 137.861C240.899 137.757 240.658 137.704 240.366 137.704C240.097 137.704 239.865 137.75 239.669 137.841C239.473 137.932 239.32 138.055 239.211 138.21C239.101 138.365 239.047 138.54 239.047 138.736H237.406C237.406 138.445 237.477 138.162 237.618 137.889C237.759 137.615 237.964 137.371 238.233 137.157C238.502 136.943 238.823 136.774 239.197 136.651C239.571 136.528 239.99 136.467 240.455 136.467C241.011 136.467 241.503 136.56 241.931 136.747C242.364 136.934 242.704 137.216 242.95 137.595C243.201 137.968 243.326 138.438 243.326 139.003V142.291C243.326 142.628 243.349 142.931 243.394 143.2C243.444 143.465 243.515 143.695 243.606 143.891V144H241.918C241.84 143.822 241.779 143.597 241.733 143.323C241.692 143.045 241.672 142.776 241.672 142.517ZM241.911 139.502L241.924 140.521H240.742C240.437 140.521 240.168 140.55 239.935 140.609C239.703 140.664 239.509 140.746 239.354 140.855C239.199 140.965 239.083 141.097 239.006 141.252C238.928 141.407 238.889 141.582 238.889 141.778C238.889 141.974 238.935 142.154 239.026 142.318C239.117 142.478 239.249 142.603 239.423 142.694C239.6 142.785 239.814 142.831 240.065 142.831C240.402 142.831 240.696 142.763 240.947 142.626C241.202 142.485 241.403 142.314 241.549 142.113C241.694 141.908 241.772 141.715 241.781 141.532L242.314 142.264C242.259 142.451 242.166 142.651 242.034 142.865C241.902 143.079 241.729 143.285 241.514 143.48C241.305 143.672 241.052 143.829 240.756 143.952C240.464 144.075 240.127 144.137 239.744 144.137C239.261 144.137 238.83 144.041 238.452 143.85C238.074 143.654 237.777 143.392 237.563 143.063C237.349 142.731 237.242 142.355 237.242 141.936C237.242 141.544 237.315 141.197 237.461 140.896C237.611 140.591 237.83 140.336 238.117 140.131C238.409 139.926 238.764 139.771 239.183 139.666C239.603 139.557 240.081 139.502 240.619 139.502H241.911ZM246.532 133.5V144H244.878V133.5H246.532Z" fill="white"/>
<path d="M206.771 151.422V160H205.688V152.775L203.502 153.572V152.594L206.602 151.422H206.771ZM215.074 155.055V156.355C215.074 157.055 215.012 157.645 214.887 158.125C214.762 158.605 214.582 158.992 214.348 159.285C214.114 159.578 213.83 159.791 213.498 159.924C213.17 160.053 212.799 160.117 212.385 160.117C212.057 160.117 211.754 160.076 211.477 159.994C211.199 159.912 210.949 159.781 210.727 159.602C210.508 159.418 210.321 159.18 210.164 158.887C210.008 158.594 209.889 158.238 209.807 157.82C209.725 157.402 209.684 156.914 209.684 156.355V155.055C209.684 154.355 209.746 153.77 209.871 153.297C210 152.824 210.182 152.445 210.416 152.16C210.651 151.871 210.932 151.664 211.26 151.539C211.592 151.414 211.963 151.352 212.373 151.352C212.705 151.352 213.01 151.393 213.287 151.475C213.569 151.553 213.819 151.68 214.037 151.855C214.256 152.027 214.442 152.258 214.594 152.547C214.75 152.832 214.869 153.182 214.951 153.596C215.033 154.01 215.074 154.496 215.074 155.055ZM213.985 156.531V154.873C213.985 154.49 213.961 154.154 213.914 153.865C213.871 153.572 213.807 153.322 213.721 153.115C213.635 152.908 213.526 152.74 213.393 152.611C213.264 152.482 213.114 152.389 212.942 152.33C212.774 152.268 212.584 152.236 212.373 152.236C212.115 152.236 211.887 152.285 211.688 152.383C211.489 152.477 211.321 152.627 211.184 152.834C211.051 153.041 210.949 153.312 210.879 153.648C210.809 153.984 210.774 154.393 210.774 154.873V156.531C210.774 156.914 210.795 157.252 210.838 157.545C210.885 157.838 210.953 158.092 211.043 158.307C211.133 158.518 211.242 158.691 211.371 158.828C211.5 158.965 211.649 159.066 211.817 159.133C211.989 159.195 212.178 159.227 212.385 159.227C212.651 159.227 212.883 159.176 213.082 159.074C213.281 158.973 213.448 158.814 213.58 158.6C213.717 158.381 213.819 158.102 213.885 157.762C213.951 157.418 213.985 157.008 213.985 156.531ZM220.161 154.92V160H219.071V153.66H220.102L220.161 154.92ZM219.938 156.59L219.434 156.572C219.438 156.139 219.495 155.738 219.604 155.371C219.714 155 219.876 154.678 220.091 154.404C220.305 154.131 220.573 153.92 220.893 153.771C221.214 153.619 221.585 153.543 222.007 153.543C222.303 153.543 222.577 153.586 222.827 153.672C223.077 153.754 223.294 153.885 223.477 154.064C223.661 154.244 223.803 154.475 223.905 154.756C224.007 155.037 224.057 155.377 224.057 155.775V160H222.973V155.828C222.973 155.496 222.917 155.23 222.803 155.031C222.694 154.832 222.538 154.688 222.335 154.598C222.132 154.504 221.893 154.457 221.62 154.457C221.3 154.457 221.032 154.514 220.817 154.627C220.602 154.74 220.43 154.896 220.301 155.096C220.173 155.295 220.079 155.523 220.02 155.781C219.966 156.035 219.938 156.305 219.938 156.59ZM224.046 155.992L223.319 156.215C223.323 155.867 223.38 155.533 223.489 155.213C223.602 154.893 223.764 154.607 223.975 154.357C224.19 154.107 224.454 153.91 224.766 153.766C225.079 153.617 225.436 153.543 225.839 153.543C226.178 153.543 226.479 153.588 226.741 153.678C227.007 153.768 227.229 153.906 227.409 154.094C227.592 154.277 227.731 154.514 227.825 154.803C227.919 155.092 227.966 155.436 227.966 155.834V160H226.876V155.822C226.876 155.467 226.819 155.191 226.706 154.996C226.596 154.797 226.44 154.658 226.237 154.58C226.038 154.498 225.8 154.457 225.522 154.457C225.284 154.457 225.073 154.498 224.889 154.58C224.706 154.662 224.551 154.775 224.426 154.92C224.301 155.061 224.206 155.223 224.139 155.406C224.077 155.59 224.046 155.785 224.046 155.992ZM230.544 153.66V160H229.454V153.66H230.544ZM229.372 151.979C229.372 151.803 229.425 151.654 229.53 151.533C229.64 151.412 229.8 151.352 230.011 151.352C230.218 151.352 230.376 151.412 230.485 151.533C230.599 151.654 230.655 151.803 230.655 151.979C230.655 152.146 230.599 152.291 230.485 152.412C230.376 152.529 230.218 152.588 230.011 152.588C229.8 152.588 229.64 152.529 229.53 152.412C229.425 152.291 229.372 152.146 229.372 151.979ZM233.128 155.014V160H232.044V153.66H233.07L233.128 155.014ZM232.87 156.59L232.419 156.572C232.423 156.139 232.487 155.738 232.612 155.371C232.737 155 232.913 154.678 233.14 154.404C233.366 154.131 233.636 153.92 233.948 153.771C234.265 153.619 234.614 153.543 234.997 153.543C235.31 153.543 235.591 153.586 235.841 153.672C236.091 153.754 236.304 153.887 236.48 154.07C236.659 154.254 236.796 154.492 236.89 154.785C236.984 155.074 237.03 155.428 237.03 155.846V160H235.941V155.834C235.941 155.502 235.892 155.236 235.794 155.037C235.696 154.834 235.554 154.688 235.366 154.598C235.179 154.504 234.948 154.457 234.675 154.457C234.405 154.457 234.159 154.514 233.937 154.627C233.718 154.74 233.529 154.896 233.368 155.096C233.212 155.295 233.089 155.523 232.999 155.781C232.913 156.035 232.87 156.305 232.87 156.59ZM238.455 159.426C238.455 159.242 238.511 159.088 238.624 158.963C238.742 158.834 238.91 158.77 239.128 158.77C239.347 158.77 239.513 158.834 239.626 158.963C239.744 159.088 239.802 159.242 239.802 159.426C239.802 159.605 239.744 159.758 239.626 159.883C239.513 160.008 239.347 160.07 239.128 160.07C238.91 160.07 238.742 160.008 238.624 159.883C238.511 159.758 238.455 159.605 238.455 159.426Z" fill="#C2C1BB"/>
<rect x="188.25" y="0.75" width="172" height="79.5" rx="9.25" fill="#21211F"/>
<rect x="188.25" y="0.75" width="172" height="79.5" rx="9.25" stroke="#3377F4" stroke-width="1.5" stroke-dasharray="2 2"/>
<circle cx="208.5" cy="21" r="6" fill="#3377F4"/>
<path d="M340 16C340 15.4477 340.448 15 341 15C341.552 15 342 15.4477 342 16V24C342 24.5523 341.552 25 341 25C340.448 25 340 24.5523 340 24V16Z" fill="#C2C1BB"/>
<path d="M337 21C336.448 21 336 20.5523 336 20C336 19.4477 336.448 19 337 19H345C345.552 19 346 19.4477 346 20C346 20.5523 345.552 21 345 21H337Z" fill="#C2C1BB"/>
<path d="M203.512 39.0469H207.032C207.789 39.0469 208.434 39.1608 208.967 39.3887C209.5 39.6165 209.908 39.9538 210.19 40.4004C210.478 40.8424 210.621 41.3893 210.621 42.041C210.621 42.5378 210.53 42.9753 210.348 43.3535C210.165 43.7318 209.908 44.0508 209.575 44.3105C209.243 44.5658 208.846 44.764 208.386 44.9053L207.866 45.1582H204.701L204.688 43.7979H207.06C207.47 43.7979 207.812 43.7249 208.085 43.5791C208.358 43.4333 208.563 43.235 208.7 42.9844C208.841 42.7292 208.912 42.4421 208.912 42.123C208.912 41.7767 208.844 41.4759 208.707 41.2207C208.575 40.9609 208.37 40.7627 208.092 40.626C207.814 40.4847 207.461 40.4141 207.032 40.4141H205.228V49H203.512V39.0469ZM209.192 49L206.854 44.5293L208.652 44.5225L211.024 48.9111V49H209.192ZM215.147 49.1367C214.6 49.1367 214.105 49.0479 213.663 48.8701C213.226 48.6878 212.852 48.4349 212.542 48.1113C212.237 47.7878 212.002 47.4072 211.838 46.9697C211.674 46.5322 211.592 46.0605 211.592 45.5547V45.2812C211.592 44.7025 211.676 44.1784 211.845 43.709C212.014 43.2396 212.248 42.8385 212.549 42.5059C212.85 42.1686 213.205 41.9111 213.616 41.7334C214.026 41.5557 214.47 41.4668 214.949 41.4668C215.477 41.4668 215.94 41.5557 216.336 41.7334C216.733 41.9111 217.061 42.1618 217.321 42.4854C217.585 42.8044 217.781 43.1849 217.908 43.627C218.041 44.069 218.107 44.5566 218.107 45.0898V45.7939H212.392V44.6113H216.48V44.4814C216.471 44.1852 216.411 43.9072 216.302 43.6475C216.197 43.3877 216.035 43.1781 215.817 43.0186C215.598 42.859 215.306 42.7793 214.942 42.7793C214.668 42.7793 214.424 42.8385 214.21 42.957C214.001 43.071 213.825 43.2373 213.684 43.4561C213.543 43.6748 213.433 43.9391 213.356 44.249C213.283 44.5544 213.246 44.8984 213.246 45.2812V45.5547C213.246 45.8783 213.29 46.179 213.376 46.457C213.467 46.7305 213.6 46.9697 213.773 47.1748C213.946 47.3799 214.156 47.5417 214.402 47.6602C214.648 47.7741 214.928 47.8311 215.242 47.8311C215.639 47.8311 215.992 47.7513 216.302 47.5918C216.612 47.4323 216.881 47.2067 217.109 46.915L217.977 47.7559C217.817 47.9883 217.61 48.2116 217.355 48.4258C217.1 48.6354 216.787 48.8063 216.418 48.9385C216.054 49.0706 215.63 49.1367 215.147 49.1367ZM223.261 46.9971C223.261 46.833 223.22 46.6849 223.138 46.5527C223.056 46.416 222.899 46.293 222.667 46.1836C222.439 46.0742 222.101 45.974 221.655 45.8828C221.263 45.7962 220.903 45.6937 220.575 45.5752C220.251 45.4521 219.973 45.304 219.741 45.1309C219.508 44.9577 219.328 44.7526 219.201 44.5156C219.073 44.2786 219.009 44.0052 219.009 43.6953C219.009 43.3945 219.075 43.1097 219.208 42.8408C219.34 42.5719 219.529 42.335 219.775 42.1299C220.021 41.9248 220.32 41.763 220.67 41.6445C221.026 41.526 221.422 41.4668 221.86 41.4668C222.48 41.4668 223.011 41.5716 223.453 41.7812C223.899 41.9863 224.241 42.2666 224.478 42.6221C224.715 42.973 224.834 43.3695 224.834 43.8115H223.186C223.186 43.6156 223.136 43.4333 223.036 43.2646C222.94 43.0915 222.794 42.9525 222.598 42.8477C222.402 42.7383 222.156 42.6836 221.86 42.6836C221.577 42.6836 221.343 42.7292 221.156 42.8203C220.974 42.9069 220.837 43.0208 220.746 43.1621C220.659 43.3034 220.616 43.4583 220.616 43.627C220.616 43.75 220.639 43.8617 220.684 43.9619C220.734 44.0576 220.816 44.1465 220.93 44.2285C221.044 44.306 221.199 44.3789 221.395 44.4473C221.596 44.5156 221.846 44.5817 222.147 44.6455C222.712 44.764 223.197 44.9167 223.603 45.1035C224.013 45.2858 224.328 45.5228 224.546 45.8145C224.765 46.1016 224.875 46.4661 224.875 46.9082C224.875 47.2363 224.804 47.5371 224.663 47.8105C224.526 48.0794 224.325 48.3141 224.061 48.5146C223.797 48.7106 223.48 48.8633 223.111 48.9727C222.746 49.082 222.336 49.1367 221.88 49.1367C221.211 49.1367 220.643 49.0182 220.178 48.7812C219.713 48.5397 219.36 48.2321 219.119 47.8584C218.882 47.4801 218.763 47.0882 218.763 46.6826H220.356C220.374 46.988 220.459 47.2318 220.609 47.4141C220.764 47.5918 220.955 47.7217 221.183 47.8037C221.416 47.8812 221.655 47.9199 221.901 47.9199C222.197 47.9199 222.446 47.8812 222.646 47.8037C222.847 47.7217 222.999 47.6123 223.104 47.4756C223.209 47.3343 223.261 47.1748 223.261 46.9971ZM229.428 41.6035V42.8066H225.258V41.6035H229.428ZM226.461 39.792H228.108V46.9561C228.108 47.1839 228.14 47.3594 228.204 47.4824C228.272 47.6009 228.366 47.6807 228.484 47.7217C228.603 47.7627 228.742 47.7832 228.901 47.7832C229.015 47.7832 229.125 47.7764 229.229 47.7627C229.334 47.749 229.418 47.7354 229.482 47.7217L229.489 48.9795C229.352 49.0205 229.193 49.057 229.011 49.0889C228.833 49.1208 228.628 49.1367 228.395 49.1367C228.017 49.1367 227.682 49.0706 227.39 48.9385C227.099 48.8018 226.871 48.5807 226.707 48.2754C226.543 47.9701 226.461 47.5645 226.461 47.0586V39.792Z" fill="white"/>
<path d="M208.799 64.1094V65H203.215V64.2207L206.01 61.1094C206.354 60.7266 206.619 60.4023 206.807 60.1367C206.998 59.8672 207.131 59.627 207.205 59.416C207.283 59.2012 207.322 58.9824 207.322 58.7598C207.322 58.4785 207.264 58.2246 207.146 57.998C207.033 57.7676 206.865 57.584 206.643 57.4473C206.42 57.3105 206.15 57.2422 205.834 57.2422C205.455 57.2422 205.139 57.3164 204.885 57.4648C204.635 57.6094 204.447 57.8125 204.322 58.0742C204.197 58.3359 204.135 58.6367 204.135 58.9766H203.051C203.051 58.4961 203.156 58.0566 203.367 57.6582C203.578 57.2598 203.891 56.9434 204.305 56.709C204.719 56.4707 205.229 56.3516 205.834 56.3516C206.373 56.3516 206.834 56.4473 207.217 56.6387C207.6 56.8262 207.893 57.0918 208.096 57.4355C208.303 57.7754 208.406 58.1738 208.406 58.6309C208.406 58.8809 208.363 59.1348 208.277 59.3926C208.195 59.6465 208.08 59.9004 207.932 60.1543C207.787 60.4082 207.617 60.6582 207.422 60.9043C207.23 61.1504 207.025 61.3926 206.807 61.6309L204.521 64.1094H208.799ZM213.651 59.9199V65H212.561V58.6602H213.592L213.651 59.9199ZM213.428 61.5898L212.924 61.5723C212.928 61.1387 212.985 60.7383 213.094 60.3711C213.204 60 213.366 59.6777 213.581 59.4043C213.795 59.1309 214.063 58.9199 214.383 58.7715C214.704 58.6191 215.075 58.543 215.497 58.543C215.793 58.543 216.067 58.5859 216.317 58.6719C216.567 58.7539 216.784 58.8848 216.967 59.0645C217.151 59.2441 217.293 59.4746 217.395 59.7559C217.497 60.0371 217.547 60.377 217.547 60.7754V65H216.463V60.8281C216.463 60.4961 216.407 60.2305 216.293 60.0312C216.184 59.832 216.028 59.6875 215.825 59.5977C215.622 59.5039 215.383 59.457 215.11 59.457C214.79 59.457 214.522 59.5137 214.307 59.627C214.092 59.7402 213.92 59.8965 213.791 60.0957C213.663 60.2949 213.569 60.5234 213.51 60.7812C213.456 61.0352 213.428 61.3047 213.428 61.5898ZM217.536 60.9922L216.809 61.2148C216.813 60.8672 216.87 60.5332 216.979 60.2129C217.092 59.8926 217.254 59.6074 217.465 59.3574C217.68 59.1074 217.944 58.9102 218.256 58.7656C218.569 58.6172 218.926 58.543 219.329 58.543C219.668 58.543 219.969 58.5879 220.231 58.6777C220.497 58.7676 220.719 58.9062 220.899 59.0938C221.083 59.2773 221.221 59.5137 221.315 59.8027C221.409 60.0918 221.456 60.4355 221.456 60.834V65H220.366V60.8223C220.366 60.4668 220.309 60.1914 220.196 59.9961C220.086 59.7969 219.93 59.6582 219.727 59.5801C219.528 59.498 219.29 59.457 219.012 59.457C218.774 59.457 218.563 59.498 218.379 59.5801C218.196 59.6621 218.041 59.7754 217.916 59.9199C217.791 60.0605 217.696 60.2227 217.629 60.4062C217.567 60.5898 217.536 60.7852 217.536 60.9922ZM224.034 58.6602V65H222.944V58.6602H224.034ZM222.862 56.9785C222.862 56.8027 222.915 56.6543 223.02 56.5332C223.13 56.4121 223.29 56.3516 223.501 56.3516C223.708 56.3516 223.866 56.4121 223.975 56.5332C224.089 56.6543 224.145 56.8027 224.145 56.9785C224.145 57.1465 224.089 57.291 223.975 57.4121C223.866 57.5293 223.708 57.5879 223.501 57.5879C223.29 57.5879 223.13 57.5293 223.02 57.4121C222.915 57.291 222.862 57.1465 222.862 56.9785ZM226.618 60.0137V65H225.534V58.6602H226.56L226.618 60.0137ZM226.36 61.5898L225.909 61.5723C225.913 61.1387 225.978 60.7383 226.103 60.3711C226.228 60 226.403 59.6777 226.63 59.4043C226.856 59.1309 227.126 58.9199 227.438 58.7715C227.755 58.6191 228.104 58.543 228.487 58.543C228.8 58.543 229.081 58.5859 229.331 58.6719C229.581 58.7539 229.794 58.8867 229.97 59.0703C230.149 59.2539 230.286 59.4922 230.38 59.7852C230.474 60.0742 230.52 60.4277 230.52 60.8457V65H229.431V60.834C229.431 60.502 229.382 60.2363 229.284 60.0371C229.186 59.834 229.044 59.6875 228.856 59.5977C228.669 59.5039 228.438 59.457 228.165 59.457C227.895 59.457 227.649 59.5137 227.427 59.627C227.208 59.7402 227.019 59.8965 226.858 60.0957C226.702 60.2949 226.579 60.5234 226.489 60.7812C226.403 61.0352 226.36 61.3047 226.36 61.5898ZM231.945 64.4258C231.945 64.2422 232.001 64.0879 232.114 63.9629C232.232 63.834 232.4 63.7695 232.618 63.7695C232.837 63.7695 233.003 63.834 233.116 63.9629C233.234 64.0879 233.292 64.2422 233.292 64.4258C233.292 64.6055 233.234 64.7578 233.116 64.8828C233.003 65.0078 232.837 65.0703 232.618 65.0703C232.4 65.0703 232.232 65.0078 232.114 64.8828C232.001 64.7578 231.945 64.6055 231.945 64.4258Z" fill="#C2C1BB"/>
<rect x="0.75" y="95.75" width="172" height="79.5" rx="9.25" fill="#21211F"/>
<rect x="0.75" y="95.75" width="172" height="79.5" rx="9.25" stroke="#2FA700" stroke-width="1.5" stroke-dasharray="2 2"/>
<circle cx="21" cy="116" r="6" fill="#2FA700"/>
<path d="M152.5 111C152.5 110.448 152.948 110 153.5 110C154.052 110 154.5 110.448 154.5 111V119C154.5 119.552 154.052 120 153.5 120C152.948 120 152.5 119.552 152.5 119V111Z" fill="#C2C1BB"/>
<path d="M149.5 116C148.948 116 148.5 115.552 148.5 115C148.5 114.448 148.948 114 149.5 114H157.5C158.052 114 158.5 114.448 158.5 115C158.5 115.552 158.052 116 157.5 116H149.5Z" fill="#C2C1BB"/>
<path d="M21.8906 140.76H23.5996C23.5449 141.411 23.3626 141.993 23.0527 142.503C22.7428 143.009 22.3076 143.408 21.7471 143.699C21.1865 143.991 20.5052 144.137 19.7031 144.137C19.0879 144.137 18.5342 144.027 18.042 143.809C17.5498 143.585 17.1283 143.271 16.7773 142.865C16.4264 142.455 16.1576 141.961 15.9707 141.382C15.7884 140.803 15.6973 140.156 15.6973 139.44V138.613C15.6973 137.898 15.7907 137.251 15.9775 136.672C16.1689 136.093 16.4424 135.599 16.7979 135.188C17.1533 134.774 17.5794 134.457 18.0762 134.238C18.5775 134.02 19.1403 133.91 19.7646 133.91C20.5576 133.91 21.2275 134.056 21.7744 134.348C22.3213 134.639 22.7451 135.043 23.0459 135.558C23.3512 136.073 23.5381 136.663 23.6064 137.328H21.8975C21.8519 136.9 21.7516 136.533 21.5967 136.228C21.4463 135.922 21.223 135.69 20.9268 135.53C20.6305 135.366 20.2432 135.284 19.7646 135.284C19.3727 135.284 19.0309 135.357 18.7393 135.503C18.4476 135.649 18.2038 135.863 18.0078 136.146C17.8118 136.428 17.6637 136.777 17.5635 137.191C17.4678 137.602 17.4199 138.071 17.4199 138.6V139.44C17.4199 139.942 17.4632 140.397 17.5498 140.808C17.641 141.213 17.7777 141.562 17.96 141.854C18.1468 142.145 18.3838 142.371 18.6709 142.53C18.958 142.69 19.3021 142.77 19.7031 142.77C20.1908 142.77 20.585 142.692 20.8857 142.537C21.1911 142.382 21.4212 142.157 21.5762 141.86C21.7357 141.56 21.8405 141.193 21.8906 140.76ZM24.3997 140.384V140.227C24.3997 139.693 24.4772 139.199 24.6321 138.743C24.7871 138.283 25.0104 137.884 25.302 137.547C25.5983 137.205 25.9583 136.941 26.3821 136.754C26.8105 136.562 27.2936 136.467 27.8313 136.467C28.3736 136.467 28.8567 136.562 29.2805 136.754C29.7089 136.941 30.0712 137.205 30.3675 137.547C30.6637 137.884 30.8893 138.283 31.0442 138.743C31.1992 139.199 31.2766 139.693 31.2766 140.227V140.384C31.2766 140.917 31.1992 141.411 31.0442 141.867C30.8893 142.323 30.6637 142.722 30.3675 143.063C30.0712 143.401 29.7112 143.665 29.2874 143.856C28.8636 144.043 28.3828 144.137 27.845 144.137C27.3027 144.137 26.8173 144.043 26.3889 143.856C25.9651 143.665 25.6051 143.401 25.3089 143.063C25.0126 142.722 24.7871 142.323 24.6321 141.867C24.4772 141.411 24.3997 140.917 24.3997 140.384ZM26.0471 140.227V140.384C26.0471 140.716 26.0813 141.031 26.1497 141.327C26.218 141.623 26.3251 141.883 26.471 142.106C26.6168 142.33 26.8037 142.505 27.0315 142.633C27.2594 142.76 27.5305 142.824 27.845 142.824C28.1503 142.824 28.4147 142.76 28.638 142.633C28.8658 142.505 29.0527 142.33 29.1985 142.106C29.3443 141.883 29.4514 141.623 29.5198 141.327C29.5927 141.031 29.6292 140.716 29.6292 140.384V140.227C29.6292 139.898 29.5927 139.589 29.5198 139.297C29.4514 139.001 29.3421 138.739 29.1917 138.511C29.0458 138.283 28.859 138.105 28.6311 137.978C28.4078 137.845 28.1412 137.779 27.8313 137.779C27.5214 137.779 27.2526 137.845 27.0247 137.978C26.8014 138.105 26.6168 138.283 26.471 138.511C26.3251 138.739 26.218 139.001 26.1497 139.297C26.0813 139.589 26.0471 139.898 26.0471 140.227ZM32.063 140.384V140.227C32.063 139.693 32.1405 139.199 32.2955 138.743C32.4504 138.283 32.6737 137.884 32.9654 137.547C33.2616 137.205 33.6216 136.941 34.0455 136.754C34.4739 136.562 34.9569 136.467 35.4947 136.467C36.037 136.467 36.5201 136.562 36.9439 136.754C37.3723 136.941 37.7346 137.205 38.0308 137.547C38.327 137.884 38.5526 138.283 38.7076 138.743C38.8625 139.199 38.94 139.693 38.94 140.227V140.384C38.94 140.917 38.8625 141.411 38.7076 141.867C38.5526 142.323 38.327 142.722 38.0308 143.063C37.7346 143.401 37.3746 143.665 36.9507 143.856C36.5269 144.043 36.0461 144.137 35.5084 144.137C34.966 144.137 34.4807 144.043 34.0523 143.856C33.6285 143.665 33.2685 143.401 32.9722 143.063C32.676 142.722 32.4504 142.323 32.2955 141.867C32.1405 141.411 32.063 140.917 32.063 140.384ZM33.7105 140.227V140.384C33.7105 140.716 33.7447 141.031 33.813 141.327C33.8814 141.623 33.9885 141.883 34.1343 142.106C34.2802 142.33 34.467 142.505 34.6949 142.633C34.9227 142.76 35.1939 142.824 35.5084 142.824C35.8137 142.824 36.078 142.76 36.3013 142.633C36.5292 142.505 36.716 142.33 36.8619 142.106C37.0077 141.883 37.1148 141.623 37.1832 141.327C37.2561 141.031 37.2925 140.716 37.2925 140.384V140.227C37.2925 139.898 37.2561 139.589 37.1832 139.297C37.1148 139.001 37.0054 138.739 36.855 138.511C36.7092 138.283 36.5224 138.105 36.2945 137.978C36.0712 137.845 35.8046 137.779 35.4947 137.779C35.1848 137.779 34.9159 137.845 34.688 137.978C34.4647 138.105 34.2802 138.283 34.1343 138.511C33.9885 138.739 33.8814 139.001 33.813 139.297C33.7447 139.589 33.7105 139.898 33.7105 140.227ZM41.8045 133.5V144H40.1502V133.5H41.8045ZM47.8409 142.469V133.5H49.4952V144H47.9982L47.8409 142.469ZM43.0284 140.384V140.24C43.0284 139.68 43.0945 139.169 43.2267 138.709C43.3588 138.244 43.5502 137.845 43.8009 137.513C44.0515 137.175 44.3569 136.918 44.7169 136.74C45.0769 136.558 45.4825 136.467 45.9337 136.467C46.3803 136.467 46.7723 136.553 47.1095 136.727C47.4467 136.9 47.7338 137.148 47.9708 137.472C48.2078 137.791 48.3969 138.174 48.5382 138.62C48.6795 139.062 48.7797 139.554 48.839 140.097V140.555C48.7797 141.083 48.6795 141.566 48.5382 142.004C48.3969 142.441 48.2078 142.82 47.9708 143.139C47.7338 143.458 47.4445 143.704 47.1027 143.877C46.7654 144.05 46.3712 144.137 45.92 144.137C45.4734 144.137 45.0701 144.043 44.7101 143.856C44.3546 143.67 44.0515 143.408 43.8009 143.07C43.5502 142.733 43.3588 142.337 43.2267 141.881C43.0945 141.421 43.0284 140.922 43.0284 140.384ZM44.6759 140.24V140.384C44.6759 140.721 44.7055 141.035 44.7648 141.327C44.8286 141.619 44.9265 141.876 45.0587 142.1C45.1909 142.318 45.3618 142.492 45.5714 142.619C45.7856 142.742 46.0408 142.804 46.337 142.804C46.7107 142.804 47.0183 142.722 47.2599 142.558C47.5014 142.394 47.6905 142.173 47.8273 141.895C47.9685 141.612 48.0642 141.298 48.1144 140.951V139.714C48.087 139.445 48.0301 139.194 47.9435 138.962C47.8614 138.729 47.7498 138.527 47.6085 138.354C47.4672 138.176 47.2918 138.039 47.0821 137.943C46.8771 137.843 46.6333 137.793 46.3507 137.793C46.0499 137.793 45.7947 137.857 45.5851 137.984C45.3754 138.112 45.2023 138.287 45.0655 138.511C44.9334 138.734 44.8354 138.994 44.7716 139.29C44.7078 139.586 44.6759 139.903 44.6759 140.24ZM50.6234 140.384V140.227C50.6234 139.693 50.7009 139.199 50.8559 138.743C51.0108 138.283 51.2341 137.884 51.5258 137.547C51.822 137.205 52.182 136.941 52.6059 136.754C53.0342 136.562 53.5173 136.467 54.0551 136.467C54.5974 136.467 55.0805 136.562 55.5043 136.754C55.9327 136.941 56.295 137.205 56.5912 137.547C56.8874 137.884 57.113 138.283 57.268 138.743C57.4229 139.199 57.5004 139.693 57.5004 140.227V140.384C57.5004 140.917 57.4229 141.411 57.268 141.867C57.113 142.323 56.8874 142.722 56.5912 143.063C56.295 143.401 55.935 143.665 55.5111 143.856C55.0873 144.043 54.6065 144.137 54.0687 144.137C53.5264 144.137 53.0411 144.043 52.6127 143.856C52.1889 143.665 51.8288 143.401 51.5326 143.063C51.2364 142.722 51.0108 142.323 50.8559 141.867C50.7009 141.411 50.6234 140.917 50.6234 140.384ZM52.2709 140.227V140.384C52.2709 140.716 52.3051 141.031 52.3734 141.327C52.4418 141.623 52.5489 141.883 52.6947 142.106C52.8406 142.33 53.0274 142.505 53.2553 142.633C53.4831 142.76 53.7543 142.824 54.0687 142.824C54.3741 142.824 54.6384 142.76 54.8617 142.633C55.0896 142.505 55.2764 142.33 55.4223 142.106C55.5681 141.883 55.6752 141.623 55.7436 141.327C55.8165 141.031 55.8529 140.716 55.8529 140.384V140.227C55.8529 139.898 55.8165 139.589 55.7436 139.297C55.6752 139.001 55.5658 138.739 55.4154 138.511C55.2696 138.283 55.0827 138.105 54.8549 137.978C54.6316 137.845 54.365 137.779 54.0551 137.779C53.7452 137.779 53.4763 137.845 53.2484 137.978C53.0251 138.105 52.8406 138.283 52.6947 138.511C52.5489 138.739 52.4418 139.001 52.3734 139.297C52.3051 139.589 52.2709 139.898 52.2709 140.227ZM60.611 142.359L62.32 136.604H63.3727L63.0856 138.326L61.363 144H60.4196L60.611 142.359ZM59.6061 136.604L60.9391 142.387L61.0485 144H59.9958L57.9929 136.604H59.6061ZM64.9723 142.318L66.2643 136.604H67.8708L65.8747 144H64.822L64.9723 142.318ZM63.5505 136.604L65.2389 142.291L65.4509 144H64.5075L62.7643 138.319L62.4772 136.604H63.5505ZM70.3457 138.183V144H68.6982V136.604H70.25L70.3457 138.183ZM70.0517 140.028L69.5185 140.021C69.5231 139.497 69.596 139.017 69.7373 138.579C69.8831 138.142 70.0836 137.766 70.3388 137.451C70.5986 137.137 70.9085 136.895 71.2685 136.727C71.6285 136.553 72.0296 136.467 72.4716 136.467C72.8271 136.467 73.1484 136.517 73.4355 136.617C73.7272 136.713 73.9755 136.87 74.1806 137.089C74.3903 137.308 74.5498 137.592 74.6591 137.943C74.7685 138.29 74.8232 138.716 74.8232 139.222V144H73.1689V139.215C73.1689 138.859 73.1165 138.579 73.0117 138.374C72.9114 138.164 72.7633 138.016 72.5673 137.93C72.3759 137.839 72.1367 137.793 71.8496 137.793C71.567 137.793 71.3141 137.852 71.0908 137.971C70.8675 138.089 70.6783 138.251 70.5234 138.456C70.373 138.661 70.2568 138.898 70.1748 139.167C70.0927 139.436 70.0517 139.723 70.0517 140.028Z" fill="white"/>
<path d="M17.0801 155.939L16.2129 155.717L16.6406 151.469H21.0176V152.471H17.5605L17.3027 154.791C17.459 154.701 17.6562 154.617 17.8945 154.539C18.1367 154.461 18.4141 154.422 18.7266 154.422C19.1211 154.422 19.4746 154.49 19.7871 154.627C20.0996 154.76 20.3652 154.951 20.584 155.201C20.8066 155.451 20.9766 155.752 21.0938 156.104C21.2109 156.455 21.2695 156.848 21.2695 157.281C21.2695 157.691 21.2129 158.068 21.0996 158.412C20.9902 158.756 20.8242 159.057 20.6016 159.314C20.3789 159.568 20.0977 159.766 19.7578 159.906C19.4219 160.047 19.0254 160.117 18.5684 160.117C18.2246 160.117 17.8984 160.07 17.5898 159.977C17.2852 159.879 17.0117 159.732 16.7695 159.537C16.5312 159.338 16.3359 159.092 16.1836 158.799C16.0352 158.502 15.9414 158.154 15.9023 157.756H16.9336C16.9805 158.076 17.0742 158.346 17.2148 158.564C17.3555 158.783 17.5391 158.949 17.7656 159.062C17.9961 159.172 18.2637 159.227 18.5684 159.227C18.8262 159.227 19.0547 159.182 19.2539 159.092C19.4531 159.002 19.6211 158.873 19.7578 158.705C19.8945 158.537 19.998 158.334 20.0684 158.096C20.1426 157.857 20.1797 157.59 20.1797 157.293C20.1797 157.023 20.1426 156.773 20.0684 156.543C19.9941 156.312 19.8828 156.111 19.7344 155.939C19.5898 155.768 19.4121 155.635 19.2012 155.541C18.9902 155.443 18.748 155.395 18.4746 155.395C18.1113 155.395 17.8359 155.443 17.6484 155.541C17.4648 155.639 17.2754 155.771 17.0801 155.939ZM26.1509 154.92V160H25.061V153.66H26.0923L26.1509 154.92ZM25.9282 156.59L25.4243 156.572C25.4282 156.139 25.4848 155.738 25.5942 155.371C25.7036 155 25.8657 154.678 26.0805 154.404C26.2954 154.131 26.563 153.92 26.8833 153.771C27.2036 153.619 27.5747 153.543 27.9966 153.543C28.2934 153.543 28.5669 153.586 28.8169 153.672C29.0669 153.754 29.2837 153.885 29.4673 154.064C29.6509 154.244 29.7934 154.475 29.895 154.756C29.9966 155.037 30.0473 155.377 30.0473 155.775V160H28.9634V155.828C28.9634 155.496 28.9067 155.23 28.7934 155.031C28.6841 154.832 28.5278 154.688 28.3247 154.598C28.1216 154.504 27.8833 154.457 27.6098 154.457C27.2895 154.457 27.022 154.514 26.8071 154.627C26.5923 154.74 26.4204 154.896 26.2915 155.096C26.1626 155.295 26.0688 155.523 26.0102 155.781C25.9555 156.035 25.9282 156.305 25.9282 156.59ZM30.0356 155.992L29.3091 156.215C29.313 155.867 29.3696 155.533 29.479 155.213C29.5923 154.893 29.7544 154.607 29.9653 154.357C30.1802 154.107 30.4438 153.91 30.7563 153.766C31.0688 153.617 31.4263 153.543 31.8286 153.543C32.1684 153.543 32.4692 153.588 32.7309 153.678C32.9966 153.768 33.2192 153.906 33.3989 154.094C33.5825 154.277 33.7212 154.514 33.8149 154.803C33.9087 155.092 33.9555 155.436 33.9555 155.834V160H32.8657V155.822C32.8657 155.467 32.8091 155.191 32.6958 154.996C32.5864 154.797 32.4302 154.658 32.227 154.58C32.0278 154.498 31.7895 154.457 31.5122 154.457C31.2739 154.457 31.063 154.498 30.8794 154.58C30.6958 154.662 30.5415 154.775 30.4165 154.92C30.2915 155.061 30.1958 155.223 30.1294 155.406C30.0669 155.59 30.0356 155.785 30.0356 155.992ZM36.5339 153.66V160H35.4441V153.66H36.5339ZM35.362 151.979C35.362 151.803 35.4148 151.654 35.5202 151.533C35.6296 151.412 35.7898 151.352 36.0007 151.352C36.2077 151.352 36.3659 151.412 36.4753 151.533C36.5886 151.654 36.6452 151.803 36.6452 151.979C36.6452 152.146 36.5886 152.291 36.4753 152.412C36.3659 152.529 36.2077 152.588 36.0007 152.588C35.7898 152.588 35.6296 152.529 35.5202 152.412C35.4148 152.291 35.362 152.146 35.362 151.979ZM39.1181 155.014V160H38.0341V153.66H39.0595L39.1181 155.014ZM38.8603 156.59L38.4091 156.572C38.413 156.139 38.4775 155.738 38.6025 155.371C38.7275 155 38.9033 154.678 39.1298 154.404C39.3564 154.131 39.6259 153.92 39.9384 153.771C40.2548 153.619 40.6045 153.543 40.9873 153.543C41.2998 153.543 41.581 153.586 41.831 153.672C42.081 153.754 42.2939 153.887 42.4697 154.07C42.6494 154.254 42.7861 154.492 42.8798 154.785C42.9736 155.074 43.0205 155.428 43.0205 155.846V160H41.9306V155.834C41.9306 155.502 41.8818 155.236 41.7841 155.037C41.6865 154.834 41.5439 154.688 41.3564 154.598C41.1689 154.504 40.9384 154.457 40.665 154.457C40.3955 154.457 40.1494 154.514 39.9267 154.627C39.708 154.74 39.5185 154.896 39.3584 155.096C39.2021 155.295 39.0791 155.523 38.9892 155.781C38.9033 156.035 38.8603 156.305 38.8603 156.59ZM44.4445 159.426C44.4445 159.242 44.5012 159.088 44.6145 158.963C44.7316 158.834 44.8996 158.77 45.1184 158.77C45.3371 158.77 45.5031 158.834 45.6164 158.963C45.7336 159.088 45.7922 159.242 45.7922 159.426C45.7922 159.605 45.7336 159.758 45.6164 159.883C45.5031 160.008 45.3371 160.07 45.1184 160.07C44.8996 160.07 44.7316 160.008 44.6145 159.883C44.5012 159.758 44.4445 159.605 44.4445 159.426Z" fill="#C2C1BB"/>
</svg>
