<svg width="447" height="32" viewBox="0 0 447 32" fill="none" xmlns="http://www.w3.org/2000/svg">
<rect width="79.1068" height="31.7379" rx="6.36893" fill="#FFAA00"/>
<path d="M13.1596 18.0811L15.1888 10.1813H16.2523L16.1334 12.2175L13.9643 20.3691H12.8587L13.1596 18.0811ZM11.6412 10.1813L13.2856 18.0181L13.4325 20.3691H12.257L9.89895 10.1813H11.6412ZM18.5544 17.9971L20.1777 10.1813H21.927L19.569 20.3691H18.3935L18.5544 17.9971ZM16.6652 10.1813L18.6733 18.1021L18.9672 20.3691H17.8617L15.7276 12.2175L15.6156 10.1813H16.6652ZM27.0909 18.8508V15.2403C27.0909 14.9697 27.0419 14.7365 26.9439 14.5405C26.846 14.3446 26.6967 14.193 26.4961 14.0857C26.3002 13.9784 26.053 13.9248 25.7544 13.9248C25.4792 13.9248 25.2413 13.9714 25.0407 14.0647C24.8401 14.158 24.6839 14.284 24.5719 14.4426C24.46 14.6012 24.404 14.7808 24.404 14.9814H22.7247C22.7247 14.6828 22.797 14.3936 22.9416 14.1137C23.0862 13.8338 23.2961 13.5843 23.5713 13.365C23.8465 13.1458 24.1754 12.9732 24.5579 12.8472C24.9404 12.7213 25.3696 12.6583 25.8454 12.6583C26.4145 12.6583 26.9183 12.7539 27.3568 12.9452C27.7999 13.1365 28.1474 13.4257 28.3993 13.8128C28.6559 14.1954 28.7842 14.6758 28.7842 15.2542V18.6199C28.7842 18.9651 28.8075 19.2753 28.8541 19.5505C28.9055 19.821 28.9778 20.0566 29.0711 20.2572V20.3691H27.3428C27.2635 20.1872 27.2005 19.9563 27.1538 19.6764C27.1119 19.3919 27.0909 19.1167 27.0909 18.8508ZM27.3358 15.765L27.3498 16.8076H26.1393C25.8267 16.8076 25.5515 16.8379 25.3136 16.8986C25.0757 16.9545 24.8774 17.0385 24.7188 17.1505C24.5602 17.2624 24.4413 17.3977 24.362 17.5563C24.2827 17.7149 24.243 17.8945 24.243 18.0951C24.243 18.2957 24.2897 18.4799 24.383 18.6478C24.4763 18.8111 24.6116 18.9394 24.7888 19.0327C24.9707 19.126 25.19 19.1726 25.4465 19.1726C25.7917 19.1726 26.0926 19.1027 26.3492 18.9627C26.6104 18.8181 26.8156 18.6432 26.9649 18.4379C27.1142 18.228 27.1935 18.0298 27.2028 17.8432L27.7486 18.5919C27.6926 18.7831 27.597 18.9884 27.4617 19.2076C27.3264 19.4269 27.1492 19.6368 26.9299 19.8374C26.7154 20.0333 26.4565 20.1942 26.1533 20.3202C25.8547 20.4461 25.5095 20.5091 25.1177 20.5091C24.6232 20.5091 24.1824 20.4111 23.7952 20.2152C23.4081 20.0146 23.1048 19.7464 22.8856 19.4105C22.6664 19.07 22.5567 18.6852 22.5567 18.256C22.5567 17.8548 22.6314 17.5003 22.7806 17.1924C22.9346 16.8799 23.1585 16.6187 23.4524 16.4088C23.7509 16.1989 24.1148 16.0403 24.5439 15.933C24.9731 15.821 25.4629 15.765 26.0133 15.765H27.3358ZM32.2407 14.2397V20.3691H30.5544V12.7983H32.1638L32.2407 14.2397ZM34.5568 12.7493L34.5428 14.3166C34.4402 14.298 34.3282 14.284 34.2069 14.2747C34.0903 14.2653 33.9737 14.2607 33.8571 14.2607C33.5679 14.2607 33.3136 14.3026 33.0944 14.3866C32.8752 14.4659 32.6909 14.5825 32.5416 14.7365C32.397 14.8857 32.2851 15.0677 32.2058 15.2822C32.1265 15.4968 32.0798 15.737 32.0658 16.0029L31.681 16.0309C31.681 15.5551 31.7276 15.1143 31.8209 14.7085C31.9142 14.3026 32.0542 13.9458 32.2407 13.6379C32.432 13.33 32.6699 13.0898 32.9545 12.9172C33.2437 12.7446 33.5772 12.6583 33.955 12.6583C34.0577 12.6583 34.1673 12.6676 34.2839 12.6863C34.4052 12.705 34.4962 12.726 34.5568 12.7493ZM37.2997 14.3376V20.3691H35.6134V12.7983H37.2017L37.2997 14.3376ZM37.0268 16.3038L36.453 16.2968C36.453 15.7744 36.5183 15.2916 36.6489 14.8484C36.7795 14.4053 36.9708 14.0204 37.2227 13.6939C37.4746 13.3627 37.7871 13.1085 38.1603 12.9312C38.5382 12.7493 38.9743 12.6583 39.4688 12.6583C39.814 12.6583 40.1288 12.7096 40.4134 12.8123C40.7026 12.9102 40.9522 13.0665 41.1621 13.2811C41.3766 13.4956 41.5399 13.7709 41.6519 14.1067C41.7685 14.4426 41.8268 14.8484 41.8268 15.3242V20.3691H40.1405V15.4712C40.1405 15.1026 40.0845 14.8134 39.9726 14.6035C39.8653 14.3936 39.709 14.2443 39.5038 14.1557C39.3032 14.0624 39.0629 14.0158 38.7831 14.0158C38.4658 14.0158 38.1953 14.0764 37.9714 14.1977C37.7521 14.319 37.5725 14.4846 37.4326 14.6945C37.2927 14.9044 37.19 15.147 37.1247 15.4222C37.0594 15.6974 37.0268 15.9913 37.0268 16.3038ZM41.7218 15.856L40.9312 16.0309C40.9312 15.5738 40.9941 15.1423 41.1201 14.7365C41.2507 14.326 41.4396 13.9668 41.6869 13.6589C41.9388 13.3464 42.249 13.1015 42.6175 12.9242C42.986 12.7469 43.4081 12.6583 43.8839 12.6583C44.2711 12.6583 44.6163 12.712 44.9195 12.8193C45.2274 12.9219 45.4886 13.0851 45.7032 13.309C45.9178 13.533 46.081 13.8245 46.193 14.1837C46.305 14.5382 46.3609 14.9674 46.3609 15.4712V20.3691H44.6676V15.4642C44.6676 15.0817 44.6116 14.7854 44.4997 14.5755C44.3924 14.3656 44.2385 14.221 44.0379 14.1417C43.8373 14.0577 43.5971 14.0158 43.3172 14.0158C43.056 14.0158 42.8251 14.0647 42.6245 14.1627C42.4285 14.256 42.263 14.3889 42.1277 14.5615C41.9924 14.7295 41.8898 14.9231 41.8198 15.1423C41.7545 15.3615 41.7218 15.5994 41.7218 15.856ZM51.4898 15.3452V16.6887H47.7883V15.3452H51.4898ZM58.8508 10.1813H60.6001V16.9895C60.6001 17.7639 60.4321 18.4123 60.0963 18.9347C59.7604 19.4572 59.3033 19.8514 58.7248 20.1172C58.1511 20.3785 57.5097 20.5091 56.8006 20.5091C56.0683 20.5091 55.4152 20.3785 54.8414 20.1172C54.2677 19.8514 53.8152 19.4572 53.484 18.9347C53.1575 18.4123 52.9942 17.7639 52.9942 16.9895V10.1813H54.7435V16.9895C54.7435 17.4793 54.8274 17.8828 54.9954 18.2C55.1633 18.5126 55.4012 18.7435 55.7091 18.8927C56.017 19.042 56.3808 19.1167 56.8006 19.1167C57.2205 19.1167 57.582 19.042 57.8852 18.8927C58.1931 18.7435 58.431 18.5126 58.5989 18.2C58.7668 17.8828 58.8508 17.4793 58.8508 16.9895V10.1813ZM64.0356 14.2537V23.2799H62.3493V12.7983H63.9027L64.0356 14.2537ZM68.9686 16.5137V16.6607C68.9686 17.2111 68.9033 17.7219 68.7727 18.193C68.6467 18.6595 68.4578 19.0677 68.2059 19.4175C67.9587 19.7627 67.6532 20.0309 67.2893 20.2222C66.9255 20.4135 66.5056 20.5091 66.0298 20.5091C65.5587 20.5091 65.1459 20.4228 64.7913 20.2502C64.4415 20.0729 64.1453 19.8234 63.9027 19.5015C63.6601 19.1796 63.4642 18.8018 63.3149 18.368C63.1703 17.9295 63.0677 17.449 63.0071 16.9266V16.3598C63.0677 15.8047 63.1703 15.3009 63.3149 14.8484C63.4642 14.3959 63.6601 14.0064 63.9027 13.6799C64.1453 13.3534 64.4415 13.1015 64.7913 12.9242C65.1412 12.7469 65.5494 12.6583 66.0158 12.6583C66.4916 12.6583 66.9138 12.7516 67.2823 12.9382C67.6508 13.1201 67.961 13.3814 68.2129 13.7219C68.4648 14.0577 68.6537 14.4636 68.7797 14.9394C68.9056 15.4105 68.9686 15.9353 68.9686 16.5137ZM67.2823 16.6607V16.5137C67.2823 16.1639 67.2497 15.8397 67.1844 15.5411C67.119 15.2379 67.0164 14.972 66.8765 14.7435C66.7365 14.5149 66.5569 14.3376 66.3377 14.2117C66.1231 14.0811 65.8642 14.0158 65.561 14.0158C65.2625 14.0158 65.0059 14.0671 64.7913 14.1697C64.5768 14.2677 64.3972 14.4053 64.2526 14.5825C64.108 14.7598 63.996 14.9674 63.9167 15.2053C63.8374 15.4385 63.7814 15.6927 63.7488 15.968V17.3254C63.8047 17.6613 63.9004 17.9691 64.0356 18.249C64.1709 18.5289 64.3622 18.7528 64.6094 18.9207C64.8613 19.084 65.1832 19.1656 65.575 19.1656C65.8782 19.1656 66.1371 19.1003 66.3517 18.9697C66.5663 18.8391 66.7412 18.6595 66.8765 18.4309C67.0164 18.1977 67.119 17.9295 67.1844 17.6263C67.2497 17.3231 67.2823 17.0012 67.2823 16.6607Z" fill="black"/>
<rect x="87.1074" width="83.1068" height="31.7379" rx="6.36893" fill="#FC5200"/>
<path d="M104.261 18.9767V20.3691H99.1463V18.9767H104.261ZM99.6361 10.1813V20.3691H97.8798V10.1813H99.6361ZM108.788 20.5091C108.229 20.5091 107.722 20.4181 107.27 20.2362C106.822 20.0496 106.44 19.7907 106.122 19.4595C105.81 19.1283 105.57 18.7388 105.402 18.291C105.234 17.8432 105.15 17.3604 105.15 16.8426V16.5627C105.15 15.9703 105.236 15.4338 105.409 14.9534C105.581 14.4729 105.822 14.0624 106.129 13.7219C106.437 13.3767 106.801 13.1131 107.221 12.9312C107.641 12.7493 108.096 12.6583 108.585 12.6583C109.127 12.6583 109.6 12.7493 110.006 12.9312C110.412 13.1131 110.748 13.3697 111.013 13.7009C111.284 14.0274 111.485 14.4169 111.615 14.8694C111.75 15.3219 111.818 15.821 111.818 16.3668V17.0875H105.969V15.877H110.153V15.744C110.143 15.4408 110.083 15.1563 109.971 14.8904C109.864 14.6245 109.698 14.4099 109.474 14.2467C109.25 14.0834 108.952 14.0018 108.578 14.0018C108.299 14.0018 108.049 14.0624 107.83 14.1837C107.615 14.3003 107.436 14.4706 107.291 14.6945C107.146 14.9184 107.034 15.1889 106.955 15.5061C106.88 15.8187 106.843 16.1709 106.843 16.5627V16.8426C106.843 17.1738 106.887 17.4817 106.976 17.7662C107.069 18.0461 107.205 18.291 107.382 18.5009C107.559 18.7108 107.774 18.8764 108.026 18.9977C108.278 19.1143 108.564 19.1726 108.886 19.1726C109.292 19.1726 109.654 19.091 109.971 18.9277C110.288 18.7645 110.563 18.5336 110.797 18.235L111.685 19.0957C111.522 19.3336 111.31 19.5621 111.048 19.7814C110.787 19.996 110.468 20.1709 110.09 20.3062C109.717 20.4414 109.283 20.5091 108.788 20.5091ZM117.983 12.7983H119.515V20.1592C119.515 20.8403 119.37 21.4187 119.081 21.8945C118.792 22.3703 118.388 22.7318 117.871 22.9791C117.353 23.231 116.753 23.3569 116.072 23.3569C115.783 23.3569 115.461 23.3149 115.107 23.231C114.757 23.147 114.416 23.0117 114.085 22.8251C113.759 22.6432 113.486 22.403 113.266 22.1044L114.057 21.1108C114.328 21.4327 114.626 21.6683 114.953 21.8175C115.279 21.9668 115.622 22.0415 115.981 22.0415C116.369 22.0415 116.697 21.9691 116.968 21.8245C117.243 21.6846 117.455 21.477 117.605 21.2018C117.754 20.9266 117.829 20.5907 117.829 20.1942V14.5126L117.983 12.7983ZM112.84 16.6677V16.5207C112.84 15.947 112.91 15.4245 113.05 14.9534C113.19 14.4776 113.39 14.0694 113.651 13.7289C113.913 13.3837 114.23 13.1201 114.603 12.9382C114.976 12.7516 115.398 12.6583 115.869 12.6583C116.359 12.6583 116.777 12.7469 117.122 12.9242C117.472 13.1015 117.763 13.3557 117.997 13.6869C118.23 14.0134 118.412 14.4053 118.542 14.8624C118.678 15.3149 118.778 15.8187 118.843 16.3738V16.8426C118.783 17.3837 118.68 17.8782 118.535 18.326C118.391 18.7738 118.199 19.161 117.962 19.4875C117.724 19.814 117.43 20.0659 117.08 20.2432C116.735 20.4205 116.327 20.5091 115.855 20.5091C115.394 20.5091 114.976 20.4135 114.603 20.2222C114.234 20.0309 113.917 19.7627 113.651 19.4175C113.39 19.0723 113.19 18.6665 113.05 18.2C112.91 17.7289 112.84 17.2181 112.84 16.6677ZM114.526 16.5207V16.6677C114.526 17.0129 114.559 17.3347 114.624 17.6333C114.694 17.9318 114.799 18.1954 114.939 18.4239C115.083 18.6478 115.265 18.8251 115.485 18.9557C115.708 19.0817 115.972 19.1446 116.275 19.1446C116.672 19.1446 116.996 19.0607 117.248 18.8927C117.504 18.7248 117.7 18.4986 117.836 18.214C117.976 17.9248 118.074 17.6029 118.129 17.2484V15.9819C118.102 15.7067 118.043 15.4502 117.955 15.2123C117.871 14.9744 117.756 14.7668 117.612 14.5895C117.467 14.4076 117.285 14.2677 117.066 14.1697C116.847 14.0671 116.588 14.0158 116.289 14.0158C115.986 14.0158 115.722 14.0811 115.499 14.2117C115.275 14.3423 115.09 14.5219 114.946 14.7505C114.806 14.979 114.701 15.2449 114.631 15.5481C114.561 15.8513 114.526 16.1755 114.526 16.5207ZM128.87 16.5697H126.218V15.1773H128.87C129.332 15.1773 129.705 15.1026 129.99 14.9534C130.274 14.8041 130.482 14.5989 130.612 14.3376C130.748 14.0717 130.815 13.7685 130.815 13.428C130.815 13.1061 130.748 12.8053 130.612 12.5254C130.482 12.2408 130.274 12.0123 129.99 11.8397C129.705 11.6671 129.332 11.5808 128.87 11.5808H126.757V20.3691H125.001V10.1813H128.87C129.658 10.1813 130.328 10.3213 130.878 10.6012C131.433 10.8764 131.856 11.2589 132.145 11.7487C132.434 12.2338 132.579 12.7889 132.579 13.414C132.579 14.0717 132.434 14.6362 132.145 15.1073C131.856 15.5784 131.433 15.94 130.878 16.1919C130.328 16.4438 129.658 16.5697 128.87 16.5697ZM135.678 14.2397V20.3691H133.992V12.7983H135.601L135.678 14.2397ZM137.994 12.7493L137.98 14.3166C137.878 14.298 137.766 14.284 137.644 14.2747C137.528 14.2653 137.411 14.2607 137.295 14.2607C137.005 14.2607 136.751 14.3026 136.532 14.3866C136.313 14.4659 136.128 14.5825 135.979 14.7365C135.835 14.8857 135.723 15.0677 135.643 15.2822C135.564 15.4968 135.517 15.737 135.503 16.0029L135.118 16.0309C135.118 15.5551 135.165 15.1143 135.258 14.7085C135.352 14.3026 135.492 13.9458 135.678 13.6379C135.87 13.33 136.107 13.0898 136.392 12.9172C136.681 12.7446 137.015 12.6583 137.393 12.6583C137.495 12.6583 137.605 12.6676 137.721 12.6863C137.843 12.705 137.934 12.726 137.994 12.7493ZM142.249 20.5091C141.689 20.5091 141.183 20.4181 140.73 20.2362C140.282 20.0496 139.9 19.7907 139.583 19.4595C139.27 19.1283 139.03 18.7388 138.862 18.291C138.694 17.8432 138.61 17.3604 138.61 16.8426V16.5627C138.61 15.9703 138.696 15.4338 138.869 14.9534C139.042 14.4729 139.282 14.0624 139.59 13.7219C139.898 13.3767 140.261 13.1131 140.681 12.9312C141.101 12.7493 141.556 12.6583 142.046 12.6583C142.587 12.6583 143.06 12.7493 143.466 12.9312C143.872 13.1131 144.208 13.3697 144.474 13.7009C144.744 14.0274 144.945 14.4169 145.075 14.8694C145.211 15.3219 145.278 15.821 145.278 16.3668V17.0875H139.429V15.877H143.613V15.744C143.604 15.4408 143.543 15.1563 143.431 14.8904C143.324 14.6245 143.158 14.4099 142.934 14.2467C142.71 14.0834 142.412 14.0018 142.039 14.0018C141.759 14.0018 141.509 14.0624 141.29 14.1837C141.075 14.3003 140.896 14.4706 140.751 14.6945C140.607 14.9184 140.495 15.1889 140.415 15.5061C140.341 15.8187 140.303 16.1709 140.303 16.5627V16.8426C140.303 17.1738 140.348 17.4817 140.436 17.7662C140.53 18.0461 140.665 18.291 140.842 18.5009C141.019 18.7108 141.234 18.8764 141.486 18.9977C141.738 19.1143 142.025 19.1726 142.347 19.1726C142.752 19.1726 143.114 19.091 143.431 18.9277C143.748 18.7645 144.023 18.5336 144.257 18.235L145.145 19.0957C144.982 19.3336 144.77 19.5621 144.509 19.7814C144.247 19.996 143.928 20.1709 143.55 20.3062C143.177 20.4414 142.743 20.5091 142.249 20.5091ZM150.841 18.319C150.841 18.1511 150.799 17.9995 150.715 17.8642C150.631 17.7242 150.47 17.5983 150.232 17.4863C149.999 17.3744 149.654 17.2718 149.197 17.1785C148.796 17.0898 148.427 16.9849 148.091 16.8636C147.76 16.7376 147.475 16.586 147.238 16.4088C147 16.2315 146.815 16.0216 146.685 15.779C146.554 15.5365 146.489 15.2566 146.489 14.9394C146.489 14.6315 146.556 14.34 146.692 14.0647C146.827 13.7895 147.021 13.547 147.272 13.337C147.524 13.1271 147.83 12.9615 148.189 12.8402C148.553 12.719 148.959 12.6583 149.407 12.6583C150.041 12.6583 150.584 12.7656 151.037 12.9802C151.494 13.1901 151.844 13.477 152.087 13.8408C152.329 14.2 152.45 14.6058 152.45 15.0583H150.764C150.764 14.8577 150.713 14.6712 150.61 14.4986C150.512 14.3213 150.363 14.179 150.162 14.0717C149.962 13.9598 149.71 13.9038 149.407 13.9038C149.117 13.9038 148.877 13.9505 148.686 14.0437C148.499 14.1324 148.359 14.249 148.266 14.3936C148.177 14.5382 148.133 14.6968 148.133 14.8694C148.133 14.9954 148.156 15.1096 148.203 15.2123C148.254 15.3102 148.338 15.4012 148.455 15.4852C148.572 15.5645 148.73 15.6391 148.931 15.7091C149.136 15.779 149.393 15.8467 149.7 15.912C150.279 16.0333 150.776 16.1895 151.191 16.3808C151.611 16.5674 151.933 16.8099 152.156 17.1085C152.38 17.4024 152.492 17.7755 152.492 18.228C152.492 18.5639 152.42 18.8718 152.275 19.1516C152.135 19.4269 151.93 19.6671 151.66 19.8723C151.389 20.0729 151.065 20.2292 150.687 20.3412C150.314 20.4531 149.894 20.5091 149.428 20.5091C148.742 20.5091 148.161 20.3878 147.685 20.1452C147.21 19.898 146.848 19.5831 146.601 19.2006C146.358 18.8134 146.237 18.4123 146.237 17.9971H147.867C147.886 18.3097 147.972 18.5592 148.126 18.7458C148.285 18.9277 148.481 19.0607 148.714 19.1446C148.952 19.2239 149.197 19.2636 149.449 19.2636C149.752 19.2636 150.006 19.2239 150.211 19.1446C150.417 19.0607 150.573 18.9487 150.68 18.8088C150.787 18.6642 150.841 18.5009 150.841 18.319ZM158.216 18.319C158.216 18.1511 158.174 17.9995 158.09 17.8642C158.006 17.7242 157.845 17.5983 157.607 17.4863C157.374 17.3744 157.029 17.2718 156.572 17.1785C156.17 17.0898 155.802 16.9849 155.466 16.8636C155.135 16.7376 154.85 16.586 154.612 16.4088C154.375 16.2315 154.19 16.0216 154.06 15.779C153.929 15.5365 153.864 15.2566 153.864 14.9394C153.864 14.6315 153.931 14.34 154.067 14.0647C154.202 13.7895 154.396 13.547 154.647 13.337C154.899 13.1271 155.205 12.9615 155.564 12.8402C155.928 12.719 156.334 12.6583 156.782 12.6583C157.416 12.6583 157.959 12.7656 158.412 12.9802C158.869 13.1901 159.219 13.477 159.461 13.8408C159.704 14.2 159.825 14.6058 159.825 15.0583H158.139C158.139 14.8577 158.088 14.6712 157.985 14.4986C157.887 14.3213 157.738 14.179 157.537 14.0717C157.337 13.9598 157.085 13.9038 156.782 13.9038C156.492 13.9038 156.252 13.9505 156.061 14.0437C155.874 14.1324 155.734 14.249 155.641 14.3936C155.552 14.5382 155.508 14.6968 155.508 14.8694C155.508 14.9954 155.531 15.1096 155.578 15.2123C155.629 15.3102 155.713 15.4012 155.83 15.4852C155.947 15.5645 156.105 15.6391 156.306 15.7091C156.511 15.779 156.768 15.8467 157.075 15.912C157.654 16.0333 158.151 16.1895 158.566 16.3808C158.986 16.5674 159.308 16.8099 159.531 17.1085C159.755 17.4024 159.867 17.7755 159.867 18.228C159.867 18.5639 159.795 18.8718 159.65 19.1516C159.51 19.4269 159.305 19.6671 159.035 19.8723C158.764 20.0729 158.44 20.2292 158.062 20.3412C157.689 20.4531 157.269 20.5091 156.803 20.5091C156.117 20.5091 155.536 20.3878 155.06 20.1452C154.584 19.898 154.223 19.5831 153.976 19.2006C153.733 18.8134 153.612 18.4123 153.612 17.9971H155.242C155.261 18.3097 155.347 18.5592 155.501 18.7458C155.66 18.9277 155.856 19.0607 156.089 19.1446C156.327 19.2239 156.572 19.2636 156.824 19.2636C157.127 19.2636 157.381 19.2239 157.586 19.1446C157.791 19.0607 157.948 18.9487 158.055 18.8088C158.162 18.6642 158.216 18.5009 158.216 18.319Z" fill="black"/>
<rect x="178.213" width="48.1068" height="31.7379" rx="6.36893" fill="#3878FF"/>
<path d="M188.873 10.1813H192.477C193.251 10.1813 193.911 10.298 194.457 10.5312C195.003 10.7644 195.42 11.1096 195.709 11.5668C196.003 12.0192 196.15 12.579 196.15 13.2461C196.15 13.7545 196.057 14.2023 195.87 14.5895C195.684 14.9767 195.42 15.3032 195.08 15.5691C194.739 15.8303 194.333 16.0333 193.862 16.1779L193.33 16.4368H190.091L190.077 15.0443H192.505C192.924 15.0443 193.274 14.9697 193.554 14.8204C193.834 14.6712 194.044 14.4682 194.184 14.2117C194.329 13.9505 194.401 13.6566 194.401 13.33C194.401 12.9755 194.331 12.6676 194.191 12.4064C194.056 12.1405 193.846 11.9376 193.561 11.7977C193.277 11.6531 192.915 11.5808 192.477 11.5808H190.629V20.3691H188.873V10.1813ZM194.688 20.3691L192.295 15.793L194.135 15.786L196.563 20.2782V20.3691H194.688ZM201.069 20.5091C200.509 20.5091 200.003 20.4181 199.551 20.2362C199.103 20.0496 198.72 19.7907 198.403 19.4595C198.091 19.1283 197.85 18.7388 197.683 18.291C197.515 17.8432 197.431 17.3604 197.431 16.8426V16.5627C197.431 15.9703 197.517 15.4338 197.69 14.9534C197.862 14.4729 198.102 14.0624 198.41 13.7219C198.718 13.3767 199.082 13.1131 199.502 12.9312C199.922 12.7493 200.376 12.6583 200.866 12.6583C201.407 12.6583 201.881 12.7493 202.287 12.9312C202.692 13.1131 203.028 13.3697 203.294 13.7009C203.565 14.0274 203.765 14.4169 203.896 14.8694C204.031 15.3219 204.099 15.821 204.099 16.3668V17.0875H198.249V15.877H202.434V15.744C202.424 15.4408 202.364 15.1563 202.252 14.8904C202.144 14.6245 201.979 14.4099 201.755 14.2467C201.531 14.0834 201.232 14.0018 200.859 14.0018C200.579 14.0018 200.33 14.0624 200.111 14.1837C199.896 14.3003 199.716 14.4706 199.572 14.6945C199.427 14.9184 199.315 15.1889 199.236 15.5061C199.161 15.8187 199.124 16.1709 199.124 16.5627V16.8426C199.124 17.1738 199.168 17.4817 199.257 17.7662C199.35 18.0461 199.485 18.291 199.663 18.5009C199.84 18.7108 200.055 18.8764 200.306 18.9977C200.558 19.1143 200.845 19.1726 201.167 19.1726C201.573 19.1726 201.934 19.091 202.252 18.9277C202.569 18.7645 202.844 18.5336 203.077 18.235L203.966 19.0957C203.803 19.3336 203.59 19.5621 203.329 19.7814C203.068 19.996 202.748 20.1709 202.371 20.3062C201.997 20.4414 201.564 20.5091 201.069 20.5091ZM209.662 18.319C209.662 18.1511 209.62 17.9995 209.536 17.8642C209.452 17.7242 209.291 17.5983 209.053 17.4863C208.82 17.3744 208.474 17.2718 208.017 17.1785C207.616 17.0898 207.248 16.9849 206.912 16.8636C206.581 16.7376 206.296 16.586 206.058 16.4088C205.82 16.2315 205.636 16.0216 205.505 15.779C205.375 15.5365 205.309 15.2566 205.309 14.9394C205.309 14.6315 205.377 14.34 205.512 14.0647C205.648 13.7895 205.841 13.547 206.093 13.337C206.345 13.1271 206.65 12.9615 207.01 12.8402C207.374 12.719 207.779 12.6583 208.227 12.6583C208.862 12.6583 209.405 12.7656 209.857 12.9802C210.315 13.1901 210.664 13.477 210.907 13.8408C211.15 14.2 211.271 14.6058 211.271 15.0583H209.585C209.585 14.8577 209.533 14.6712 209.431 14.4986C209.333 14.3213 209.183 14.179 208.983 14.0717C208.782 13.9598 208.53 13.9038 208.227 13.9038C207.938 13.9038 207.698 13.9505 207.506 14.0437C207.32 14.1324 207.18 14.249 207.087 14.3936C206.998 14.5382 206.954 14.6968 206.954 14.8694C206.954 14.9954 206.977 15.1096 207.024 15.2123C207.075 15.3102 207.159 15.4012 207.276 15.4852C207.392 15.5645 207.551 15.6391 207.751 15.7091C207.957 15.779 208.213 15.8467 208.521 15.912C209.099 16.0333 209.596 16.1895 210.011 16.3808C210.431 16.5674 210.753 16.8099 210.977 17.1085C211.201 17.4024 211.313 17.7755 211.313 18.228C211.313 18.5639 211.241 18.8718 211.096 19.1516C210.956 19.4269 210.751 19.6671 210.48 19.8723C210.21 20.0729 209.885 20.2292 209.508 20.3412C209.134 20.4531 208.715 20.5091 208.248 20.5091C207.562 20.5091 206.982 20.3878 206.506 20.1452C206.03 19.898 205.669 19.5831 205.421 19.2006C205.179 18.8134 205.057 18.4123 205.057 17.9971H206.688C206.706 18.3097 206.793 18.5592 206.947 18.7458C207.105 18.9277 207.301 19.0607 207.534 19.1446C207.772 19.2239 208.017 19.2636 208.269 19.2636C208.572 19.2636 208.827 19.2239 209.032 19.1446C209.237 19.0607 209.393 18.9487 209.501 18.8088C209.608 18.6642 209.662 18.5009 209.662 18.319ZM216.26 12.7983V14.0298H211.992V12.7983H216.26ZM213.223 10.944H214.909V18.277C214.909 18.5102 214.942 18.6898 215.007 18.8158C215.077 18.9371 215.173 19.0187 215.294 19.0607C215.416 19.1027 215.558 19.1237 215.721 19.1237C215.838 19.1237 215.95 19.1167 216.057 19.1027C216.164 19.0887 216.251 19.0747 216.316 19.0607L216.323 20.3481C216.183 20.3901 216.02 20.4274 215.833 20.4601C215.651 20.4928 215.441 20.5091 215.203 20.5091C214.816 20.5091 214.473 20.4414 214.175 20.3062C213.876 20.1662 213.643 19.94 213.475 19.6274C213.307 19.3149 213.223 18.8997 213.223 18.382V10.944Z" fill="black"/>
<rect x="234.32" width="120.107" height="31.7379" rx="6.36893" fill="#FC5200"/>
<path d="M250.753 19.0117L253.433 21.1388L252.292 22.1394L249.661 20.0333L250.753 19.0117ZM253.454 14.9954V15.5551C253.454 16.3248 253.354 17.0152 253.153 17.6263C252.952 18.2374 252.666 18.7575 252.292 19.1866C251.919 19.6158 251.474 19.9446 250.956 20.1732C250.438 20.3971 249.864 20.5091 249.235 20.5091C248.61 20.5091 248.038 20.3971 247.52 20.1732C247.007 19.9446 246.562 19.6158 246.184 19.1866C245.806 18.7575 245.512 18.2374 245.302 17.6263C245.097 17.0152 244.994 16.3248 244.994 15.5551V14.9954C244.994 14.2257 245.097 13.5376 245.302 12.9312C245.508 12.3201 245.797 11.8 246.17 11.3708C246.548 10.937 246.993 10.6082 247.506 10.3843C248.024 10.1557 248.596 10.0414 249.221 10.0414C249.85 10.0414 250.424 10.1557 250.942 10.3843C251.464 10.6082 251.912 10.937 252.285 11.3708C252.659 11.8 252.945 12.3201 253.146 12.9312C253.351 13.5376 253.454 14.2257 253.454 14.9954ZM251.691 15.5551V14.9814C251.691 14.4123 251.635 13.9108 251.523 13.477C251.415 13.0385 251.254 12.6723 251.04 12.3784C250.83 12.0799 250.571 11.856 250.263 11.7067C249.96 11.5528 249.612 11.4758 249.221 11.4758C248.838 11.4758 248.495 11.5528 248.192 11.7067C247.889 11.856 247.63 12.0799 247.415 12.3784C247.201 12.6723 247.038 13.0385 246.926 13.477C246.814 13.9108 246.758 14.4123 246.758 14.9814V15.5551C246.758 16.1242 246.814 16.628 246.926 17.0665C247.038 17.505 247.201 17.8758 247.415 18.179C247.635 18.4776 247.896 18.7038 248.199 18.8578C248.507 19.007 248.852 19.0817 249.235 19.0817C249.626 19.0817 249.974 19.007 250.277 18.8578C250.58 18.7038 250.837 18.4776 251.047 18.179C251.257 17.8758 251.415 17.505 251.523 17.0665C251.635 16.628 251.691 16.1242 251.691 15.5551ZM259.625 18.5849V12.7983H261.319V20.3691H259.723L259.625 18.5849ZM259.863 17.0105L260.43 16.9965C260.43 17.505 260.374 17.9738 260.262 18.403C260.15 18.8274 259.978 19.1983 259.744 19.5155C259.511 19.828 259.213 20.0729 258.849 20.2502C258.485 20.4228 258.049 20.5091 257.54 20.5091C257.172 20.5091 256.834 20.4554 256.526 20.3481C256.218 20.2409 255.952 20.0753 255.728 19.8514C255.509 19.6274 255.338 19.3359 255.217 18.9767C255.096 18.6175 255.035 18.1884 255.035 17.6892V12.7983H256.722V17.7032C256.722 17.9785 256.754 18.2094 256.82 18.396C256.885 18.5779 256.973 18.7248 257.085 18.8368C257.197 18.9487 257.328 19.028 257.477 19.0747C257.627 19.1213 257.785 19.1446 257.953 19.1446C258.434 19.1446 258.811 19.0514 259.087 18.8648C259.366 18.6735 259.565 18.4169 259.681 18.0951C259.803 17.7732 259.863 17.4117 259.863 17.0105ZM267.315 18.8508V15.2403C267.315 14.9697 267.266 14.7365 267.168 14.5405C267.07 14.3446 266.921 14.193 266.72 14.0857C266.525 13.9784 266.277 13.9248 265.979 13.9248C265.704 13.9248 265.466 13.9714 265.265 14.0647C265.064 14.158 264.908 14.284 264.796 14.4426C264.684 14.6012 264.628 14.7808 264.628 14.9814H262.949C262.949 14.6828 263.021 14.3936 263.166 14.1137C263.311 13.8338 263.52 13.5843 263.796 13.365C264.071 13.1458 264.4 12.9732 264.782 12.8472C265.165 12.7213 265.594 12.6583 266.07 12.6583C266.639 12.6583 267.143 12.7539 267.581 12.9452C268.024 13.1365 268.372 13.4257 268.624 13.8128C268.88 14.1954 269.008 14.6758 269.008 15.2542V18.6199C269.008 18.9651 269.032 19.2753 269.078 19.5505C269.13 19.821 269.202 20.0566 269.295 20.2572V20.3691H267.567C267.488 20.1872 267.425 19.9563 267.378 19.6764C267.336 19.3919 267.315 19.1167 267.315 18.8508ZM267.56 15.765L267.574 16.8076H266.364C266.051 16.8076 265.776 16.8379 265.538 16.8986C265.3 16.9545 265.102 17.0385 264.943 17.1505C264.785 17.2624 264.666 17.3977 264.586 17.5563C264.507 17.7149 264.467 17.8945 264.467 18.0951C264.467 18.2957 264.514 18.4799 264.607 18.6478C264.701 18.8111 264.836 18.9394 265.013 19.0327C265.195 19.126 265.414 19.1726 265.671 19.1726C266.016 19.1726 266.317 19.1027 266.573 18.9627C266.835 18.8181 267.04 18.6432 267.189 18.4379C267.339 18.228 267.418 18.0298 267.427 17.8432L267.973 18.5919C267.917 18.7831 267.821 18.9884 267.686 19.2076C267.551 19.4269 267.374 19.6368 267.154 19.8374C266.94 20.0333 266.681 20.1942 266.378 20.3202C266.079 20.4461 265.734 20.5091 265.342 20.5091C264.848 20.5091 264.407 20.4111 264.02 20.2152C263.632 20.0146 263.329 19.7464 263.11 19.4105C262.891 19.07 262.781 18.6852 262.781 18.256C262.781 17.8548 262.856 17.5003 263.005 17.1924C263.159 16.8799 263.383 16.6187 263.677 16.4088C263.975 16.1989 264.339 16.0403 264.768 15.933C265.197 15.821 265.687 15.765 266.238 15.765H267.56ZM275.39 18.8018V9.62157H277.083V20.3691H275.551L275.39 18.8018ZM270.464 16.6677V16.5207C270.464 15.947 270.532 15.4245 270.667 14.9534C270.802 14.4776 270.998 14.0694 271.255 13.7289C271.511 13.3837 271.824 13.1201 272.192 12.9382C272.561 12.7516 272.976 12.6583 273.438 12.6583C273.895 12.6583 274.296 12.7469 274.641 12.9242C274.986 13.1015 275.28 13.3557 275.523 13.6869C275.765 14.0134 275.959 14.4053 276.104 14.8624C276.248 15.3149 276.351 15.8187 276.411 16.3738V16.8426C276.351 17.3837 276.248 17.8782 276.104 18.326C275.959 18.7738 275.765 19.161 275.523 19.4875C275.28 19.814 274.984 20.0659 274.634 20.2432C274.289 20.4205 273.885 20.5091 273.424 20.5091C272.967 20.5091 272.554 20.4135 272.185 20.2222C271.821 20.0309 271.511 19.7627 271.255 19.4175C270.998 19.0723 270.802 18.6665 270.667 18.2C270.532 17.7289 270.464 17.2181 270.464 16.6677ZM272.15 16.5207V16.6677C272.15 17.0129 272.181 17.3347 272.241 17.6333C272.306 17.9318 272.407 18.1954 272.542 18.4239C272.677 18.6478 272.852 18.8251 273.067 18.9557C273.286 19.0817 273.547 19.1446 273.851 19.1446C274.233 19.1446 274.548 19.0607 274.795 18.8927C275.042 18.7248 275.236 18.4986 275.376 18.214C275.52 17.9248 275.618 17.6029 275.67 17.2484V15.9819C275.642 15.7067 275.583 15.4502 275.495 15.2123C275.411 14.9744 275.297 14.7668 275.152 14.5895C275.007 14.4076 274.828 14.2677 274.613 14.1697C274.403 14.0671 274.154 14.0158 273.864 14.0158C273.557 14.0158 273.295 14.0811 273.081 14.2117C272.866 14.3423 272.689 14.5219 272.549 14.7505C272.414 14.979 272.313 15.2449 272.248 15.5481C272.183 15.8513 272.15 16.1755 272.15 16.5207ZM289.251 18.9767V20.3691H283.842V18.9767H289.251ZM284.339 10.1813V20.3691H282.583V10.1813H284.339ZM288.544 14.4356V15.807H283.842V14.4356H288.544ZM289.216 10.1813V11.5808H283.842V10.1813H289.216ZM291.805 12.7983L293.247 15.3102L294.716 12.7983H296.57L294.275 16.5137L296.661 20.3691H294.807L293.268 17.7522L291.728 20.3691H289.867L292.246 16.5137L289.958 12.7983H291.805ZM301.195 12.7983V14.0298H296.927V12.7983H301.195ZM298.158 10.944H299.845V18.277C299.845 18.5102 299.877 18.6898 299.943 18.8158C300.013 18.9371 300.108 19.0187 300.23 19.0607C300.351 19.1027 300.493 19.1237 300.656 19.1237C300.773 19.1237 300.885 19.1167 300.992 19.1027C301.1 19.0887 301.186 19.0747 301.251 19.0607L301.258 20.3481C301.118 20.3901 300.955 20.4274 300.768 20.4601C300.586 20.4928 300.377 20.5091 300.139 20.5091C299.751 20.5091 299.409 20.4414 299.11 20.3062C298.812 20.1662 298.578 19.94 298.41 19.6274C298.242 19.3149 298.158 18.8997 298.158 18.382V10.944ZM305.834 20.5091C305.275 20.5091 304.768 20.4181 304.316 20.2362C303.868 20.0496 303.486 19.7907 303.168 19.4595C302.856 19.1283 302.616 18.7388 302.448 18.291C302.28 17.8432 302.196 17.3604 302.196 16.8426V16.5627C302.196 15.9703 302.282 15.4338 302.455 14.9534C302.627 14.4729 302.868 14.0624 303.175 13.7219C303.483 13.3767 303.847 13.1131 304.267 12.9312C304.687 12.7493 305.142 12.6583 305.631 12.6583C306.173 12.6583 306.646 12.7493 307.052 12.9312C307.458 13.1131 307.794 13.3697 308.059 13.7009C308.33 14.0274 308.531 14.4169 308.661 14.8694C308.796 15.3219 308.864 15.821 308.864 16.3668V17.0875H303.014V15.877H307.199V15.744C307.189 15.4408 307.129 15.1563 307.017 14.8904C306.91 14.6245 306.744 14.4099 306.52 14.2467C306.296 14.0834 305.998 14.0018 305.624 14.0018C305.345 14.0018 305.095 14.0624 304.876 14.1837C304.661 14.3003 304.482 14.4706 304.337 14.6945C304.192 14.9184 304.08 15.1889 304.001 15.5061C303.926 15.8187 303.889 16.1709 303.889 16.5627V16.8426C303.889 17.1738 303.933 17.4817 304.022 17.7662C304.115 18.0461 304.251 18.291 304.428 18.5009C304.605 18.7108 304.82 18.8764 305.072 18.9977C305.324 19.1143 305.61 19.1726 305.932 19.1726C306.338 19.1726 306.7 19.091 307.017 18.9277C307.334 18.7645 307.609 18.5336 307.842 18.235L308.731 19.0957C308.568 19.3336 308.356 19.5621 308.094 19.7814C307.833 19.996 307.514 20.1709 307.136 20.3062C306.763 20.4414 306.329 20.5091 305.834 20.5091ZM311.852 14.4146V20.3691H310.166V12.7983H311.754L311.852 14.4146ZM311.551 16.3038L311.005 16.2968C311.01 15.7604 311.084 15.2682 311.229 14.8204C311.378 14.3726 311.584 13.9878 311.845 13.6659C312.111 13.344 312.428 13.0968 312.796 12.9242C313.165 12.7469 313.575 12.6583 314.028 12.6583C314.392 12.6583 314.721 12.7096 315.015 12.8123C315.313 12.9102 315.567 13.0711 315.777 13.2951C315.992 13.519 316.155 13.8105 316.267 14.1697C316.379 14.5242 316.435 14.9604 316.435 15.4782V20.3691H314.742V15.4712C314.742 15.1073 314.688 14.8204 314.581 14.6105C314.478 14.3959 314.326 14.2443 314.126 14.1557C313.93 14.0624 313.685 14.0158 313.391 14.0158C313.102 14.0158 312.843 14.0764 312.615 14.1977C312.386 14.319 312.192 14.4846 312.034 14.6945C311.88 14.9044 311.761 15.147 311.677 15.4222C311.593 15.6974 311.551 15.9913 311.551 16.3038ZM322.403 18.319C322.403 18.1511 322.362 17.9995 322.278 17.8642C322.194 17.7242 322.033 17.5983 321.795 17.4863C321.562 17.3744 321.216 17.2718 320.759 17.1785C320.358 17.0898 319.989 16.9849 319.654 16.8636C319.322 16.7376 319.038 16.586 318.8 16.4088C318.562 16.2315 318.378 16.0216 318.247 15.779C318.117 15.5365 318.051 15.2566 318.051 14.9394C318.051 14.6315 318.119 14.34 318.254 14.0647C318.389 13.7895 318.583 13.547 318.835 13.337C319.087 13.1271 319.392 12.9615 319.752 12.8402C320.115 12.719 320.521 12.6583 320.969 12.6583C321.603 12.6583 322.147 12.7656 322.599 12.9802C323.057 13.1901 323.406 13.477 323.649 13.8408C323.892 14.2 324.013 14.6058 324.013 15.0583H322.327C322.327 14.8577 322.275 14.6712 322.173 14.4986C322.075 14.3213 321.925 14.179 321.725 14.0717C321.524 13.9598 321.272 13.9038 320.969 13.9038C320.68 13.9038 320.44 13.9505 320.248 14.0437C320.062 14.1324 319.922 14.249 319.829 14.3936C319.74 14.5382 319.696 14.6968 319.696 14.8694C319.696 14.9954 319.719 15.1096 319.766 15.2123C319.817 15.3102 319.901 15.4012 320.017 15.4852C320.134 15.5645 320.293 15.6391 320.493 15.7091C320.699 15.779 320.955 15.8467 321.263 15.912C321.841 16.0333 322.338 16.1895 322.753 16.3808C323.173 16.5674 323.495 16.8099 323.719 17.1085C323.943 17.4024 324.055 17.7755 324.055 18.228C324.055 18.5639 323.983 18.8718 323.838 19.1516C323.698 19.4269 323.493 19.6671 323.222 19.8723C322.952 20.0729 322.627 20.2292 322.25 20.3412C321.876 20.4531 321.457 20.5091 320.99 20.5091C320.304 20.5091 319.724 20.3878 319.248 20.1452C318.772 19.898 318.41 19.5831 318.163 19.2006C317.921 18.8134 317.799 18.4123 317.799 17.9971H319.43C319.448 18.3097 319.535 18.5592 319.689 18.7458C319.847 18.9277 320.043 19.0607 320.276 19.1446C320.514 19.2239 320.759 19.2636 321.011 19.2636C321.314 19.2636 321.569 19.2239 321.774 19.1446C321.979 19.0607 322.135 18.9487 322.243 18.8088C322.35 18.6642 322.403 18.5009 322.403 18.319ZM327.336 12.7983V20.3691H325.643V12.7983H327.336ZM325.531 10.8111C325.531 10.5545 325.615 10.3423 325.783 10.1743C325.956 10.0017 326.194 9.91545 326.497 9.91545C326.795 9.91545 327.031 10.0017 327.204 10.1743C327.376 10.3423 327.462 10.5545 327.462 10.8111C327.462 11.063 327.376 11.2729 327.204 11.4408C327.031 11.6087 326.795 11.6927 326.497 11.6927C326.194 11.6927 325.956 11.6087 325.783 11.4408C325.615 11.2729 325.531 11.063 325.531 10.8111ZM328.862 16.6677V16.5067C328.862 15.961 328.941 15.4548 329.1 14.9884C329.258 14.5172 329.487 14.1091 329.785 13.7639C330.089 13.414 330.457 13.1435 330.891 12.9522C331.329 12.7563 331.824 12.6583 332.374 12.6583C332.929 12.6583 333.424 12.7563 333.858 12.9522C334.296 13.1435 334.667 13.414 334.97 13.7639C335.274 14.1091 335.504 14.5172 335.663 14.9884C335.822 15.4548 335.901 15.961 335.901 16.5067V16.6677C335.901 17.2134 335.822 17.7196 335.663 18.186C335.504 18.6525 335.274 19.0607 334.97 19.4105C334.667 19.7557 334.299 20.0263 333.865 20.2222C333.431 20.4135 332.939 20.5091 332.388 20.5091C331.833 20.5091 331.336 20.4135 330.898 20.2222C330.464 20.0263 330.096 19.7557 329.792 19.4105C329.489 19.0607 329.258 18.6525 329.1 18.186C328.941 17.7196 328.862 17.2134 328.862 16.6677ZM330.548 16.5067V16.6677C330.548 17.0082 330.583 17.3301 330.653 17.6333C330.723 17.9365 330.833 18.2024 330.982 18.4309C331.131 18.6595 331.322 18.8391 331.556 18.9697C331.789 19.1003 332.067 19.1656 332.388 19.1656C332.701 19.1656 332.971 19.1003 333.2 18.9697C333.433 18.8391 333.625 18.6595 333.774 18.4309C333.923 18.2024 334.033 17.9365 334.103 17.6333C334.177 17.3301 334.215 17.0082 334.215 16.6677V16.5067C334.215 16.1709 334.177 15.8537 334.103 15.5551C334.033 15.2519 333.921 14.9837 333.767 14.7505C333.618 14.5172 333.426 14.3353 333.193 14.2047C332.964 14.0694 332.692 14.0018 332.374 14.0018C332.057 14.0018 331.782 14.0694 331.549 14.2047C331.32 14.3353 331.131 14.5172 330.982 14.7505C330.833 14.9837 330.723 15.2519 330.653 15.5551C330.583 15.8537 330.548 16.1709 330.548 16.5067ZM338.987 14.4146V20.3691H337.3V12.7983H338.889L338.987 14.4146ZM338.686 16.3038L338.14 16.2968C338.145 15.7604 338.219 15.2682 338.364 14.8204C338.513 14.3726 338.718 13.9878 338.98 13.6659C339.246 13.344 339.563 13.0968 339.931 12.9242C340.3 12.7469 340.71 12.6583 341.163 12.6583C341.527 12.6583 341.855 12.7096 342.149 12.8123C342.448 12.9102 342.702 13.0711 342.912 13.2951C343.127 13.519 343.29 13.8105 343.402 14.1697C343.514 14.5242 343.57 14.9604 343.57 15.4782V20.3691H341.876V15.4712C341.876 15.1073 341.823 14.8204 341.716 14.6105C341.613 14.3959 341.461 14.2443 341.261 14.1557C341.065 14.0624 340.82 14.0158 340.526 14.0158C340.237 14.0158 339.978 14.0764 339.749 14.1977C339.521 14.319 339.327 14.4846 339.169 14.6945C339.015 14.9044 338.896 15.147 338.812 15.4222C338.728 15.6974 338.686 15.9913 338.686 16.3038Z" fill="black"/>
<rect x="362.428" width="84.1068" height="31.7379" rx="6.36893" fill="#2DAB00"/>
<path d="M379.487 17.0525H381.236C381.18 17.7196 380.993 18.3143 380.676 18.8368C380.359 19.3546 379.914 19.7627 379.34 20.0613C378.766 20.3598 378.069 20.5091 377.248 20.5091C376.618 20.5091 376.051 20.3971 375.547 20.1732C375.044 19.9446 374.612 19.6228 374.253 19.2076C373.894 18.7878 373.619 18.2817 373.427 17.6892C373.241 17.0968 373.147 16.4344 373.147 15.7021V14.8554C373.147 14.123 373.243 13.4607 373.434 12.8682C373.63 12.2758 373.91 11.7697 374.274 11.3499C374.638 10.9254 375.074 10.6012 375.582 10.3773C376.095 10.1533 376.672 10.0414 377.311 10.0414C378.122 10.0414 378.808 10.1907 379.368 10.4892C379.928 10.7878 380.361 11.2006 380.669 11.7277C380.982 12.2548 381.173 12.8589 381.243 13.54H379.494C379.447 13.1015 379.344 12.726 379.186 12.4134C379.032 12.1009 378.803 11.863 378.5 11.6997C378.197 11.5318 377.8 11.4478 377.311 11.4478C376.909 11.4478 376.56 11.5225 376.261 11.6717C375.963 11.821 375.713 12.0402 375.512 12.3295C375.312 12.6187 375.16 12.9755 375.058 13.4C374.96 13.8198 374.911 14.3003 374.911 14.8414V15.7021C374.911 16.2152 374.955 16.6817 375.044 17.1015C375.137 17.5166 375.277 17.8735 375.463 18.172C375.655 18.4706 375.897 18.7015 376.191 18.8648C376.485 19.028 376.837 19.1097 377.248 19.1097C377.747 19.1097 378.15 19.0304 378.458 18.8718C378.771 18.7132 379.006 18.4823 379.165 18.179C379.328 17.8712 379.435 17.4957 379.487 17.0525ZM382.342 16.6677V16.5067C382.342 15.961 382.421 15.4548 382.579 14.9884C382.738 14.5172 382.967 14.1091 383.265 13.7639C383.568 13.414 383.937 13.1435 384.371 12.9522C384.809 12.7563 385.304 12.6583 385.854 12.6583C386.409 12.6583 386.904 12.7563 387.338 12.9522C387.776 13.1435 388.147 13.414 388.45 13.7639C388.753 14.1091 388.984 14.5172 389.143 14.9884C389.301 15.4548 389.381 15.961 389.381 16.5067V16.6677C389.381 17.2134 389.301 17.7196 389.143 18.186C388.984 18.6525 388.753 19.0607 388.45 19.4105C388.147 19.7557 387.778 20.0263 387.345 20.2222C386.911 20.4135 386.419 20.5091 385.868 20.5091C385.313 20.5091 384.816 20.4135 384.378 20.2222C383.944 20.0263 383.575 19.7557 383.272 19.4105C382.969 19.0607 382.738 18.6525 382.579 18.186C382.421 17.7196 382.342 17.2134 382.342 16.6677ZM384.028 16.5067V16.6677C384.028 17.0082 384.063 17.3301 384.133 17.6333C384.203 17.9365 384.312 18.2024 384.462 18.4309C384.611 18.6595 384.802 18.8391 385.035 18.9697C385.269 19.1003 385.546 19.1656 385.868 19.1656C386.181 19.1656 386.451 19.1003 386.68 18.9697C386.913 18.8391 387.104 18.6595 387.254 18.4309C387.403 18.2024 387.512 17.9365 387.582 17.6333C387.657 17.3301 387.694 17.0082 387.694 16.6677V16.5067C387.694 16.1709 387.657 15.8537 387.582 15.5551C387.512 15.2519 387.401 14.9837 387.247 14.7505C387.097 14.5172 386.906 14.3353 386.673 14.2047C386.444 14.0694 386.171 14.0018 385.854 14.0018C385.537 14.0018 385.262 14.0694 385.028 14.2047C384.8 14.3353 384.611 14.5172 384.462 14.7505C384.312 14.9837 384.203 15.2519 384.133 15.5551C384.063 15.8537 384.028 16.1709 384.028 16.5067ZM390.472 16.6677V16.5067C390.472 15.961 390.552 15.4548 390.71 14.9884C390.869 14.5172 391.097 14.1091 391.396 13.7639C391.699 13.414 392.068 13.1435 392.501 12.9522C392.94 12.7563 393.434 12.6583 393.985 12.6583C394.54 12.6583 395.034 12.7563 395.468 12.9522C395.907 13.1435 396.278 13.414 396.581 13.7639C396.884 14.1091 397.115 14.5172 397.273 14.9884C397.432 15.4548 397.511 15.961 397.511 16.5067V16.6677C397.511 17.2134 397.432 17.7196 397.273 18.186C397.115 18.6525 396.884 19.0607 396.581 19.4105C396.278 19.7557 395.909 20.0263 395.475 20.2222C395.041 20.4135 394.549 20.5091 393.999 20.5091C393.444 20.5091 392.947 20.4135 392.508 20.2222C392.075 20.0263 391.706 19.7557 391.403 19.4105C391.1 19.0607 390.869 18.6525 390.71 18.186C390.552 17.7196 390.472 17.2134 390.472 16.6677ZM392.159 16.5067V16.6677C392.159 17.0082 392.194 17.3301 392.264 17.6333C392.333 17.9365 392.443 18.2024 392.592 18.4309C392.742 18.6595 392.933 18.8391 393.166 18.9697C393.399 19.1003 393.677 19.1656 393.999 19.1656C394.311 19.1656 394.582 19.1003 394.81 18.9697C395.044 18.8391 395.235 18.6595 395.384 18.4309C395.533 18.2024 395.643 17.9365 395.713 17.6333C395.788 17.3301 395.825 17.0082 395.825 16.6677V16.5067C395.825 16.1709 395.788 15.8537 395.713 15.5551C395.643 15.2519 395.531 14.9837 395.377 14.7505C395.228 14.5172 395.037 14.3353 394.803 14.2047C394.575 14.0694 394.302 14.0018 393.985 14.0018C393.668 14.0018 393.392 14.0694 393.159 14.2047C392.931 14.3353 392.742 14.5172 392.592 14.7505C392.443 14.9837 392.333 15.2519 392.264 15.5551C392.194 15.8537 392.159 16.1709 392.159 16.5067ZM400.73 9.62157V20.3691H399.037V9.62157H400.73ZM407.195 18.8018V9.62157H408.889V20.3691H407.356L407.195 18.8018ZM402.269 16.6677V16.5207C402.269 15.947 402.337 15.4245 402.472 14.9534C402.608 14.4776 402.803 14.0694 403.06 13.7289C403.317 13.3837 403.629 13.1201 403.998 12.9382C404.366 12.7516 404.781 12.6583 405.243 12.6583C405.7 12.6583 406.101 12.7469 406.447 12.9242C406.792 13.1015 407.086 13.3557 407.328 13.6869C407.571 14.0134 407.764 14.4053 407.909 14.8624C408.054 15.3149 408.156 15.8187 408.217 16.3738V16.8426C408.156 17.3837 408.054 17.8782 407.909 18.326C407.764 18.7738 407.571 19.161 407.328 19.4875C407.086 19.814 406.79 20.0659 406.44 20.2432C406.094 20.4205 405.691 20.5091 405.229 20.5091C404.772 20.5091 404.359 20.4135 403.991 20.2222C403.627 20.0309 403.317 19.7627 403.06 19.4175C402.803 19.0723 402.608 18.6665 402.472 18.2C402.337 17.7289 402.269 17.2181 402.269 16.6677ZM403.956 16.5207V16.6677C403.956 17.0129 403.986 17.3347 404.047 17.6333C404.112 17.9318 404.212 18.1954 404.348 18.4239C404.483 18.6478 404.658 18.8251 404.872 18.9557C405.092 19.0817 405.353 19.1446 405.656 19.1446C406.038 19.1446 406.353 19.0607 406.601 18.8927C406.848 18.7248 407.041 18.4986 407.181 18.214C407.326 17.9248 407.424 17.6029 407.475 17.2484V15.9819C407.447 15.7067 407.389 15.4502 407.3 15.2123C407.216 14.9744 407.102 14.7668 406.957 14.5895C406.813 14.4076 406.633 14.2677 406.419 14.1697C406.209 14.0671 405.959 14.0158 405.67 14.0158C405.362 14.0158 405.101 14.0811 404.886 14.2117C404.672 14.3423 404.494 14.5219 404.355 14.7505C404.219 14.979 404.119 15.2449 404.054 15.5481C403.988 15.8513 403.956 16.1755 403.956 16.5207ZM410.33 16.6677V16.5067C410.33 15.961 410.409 15.4548 410.568 14.9884C410.727 14.5172 410.955 14.1091 411.254 13.7639C411.557 13.414 411.925 13.1435 412.359 12.9522C412.798 12.7563 413.292 12.6583 413.843 12.6583C414.398 12.6583 414.892 12.7563 415.326 12.9522C415.764 13.1435 416.135 13.414 416.439 13.7639C416.742 14.1091 416.973 14.5172 417.131 14.9884C417.29 15.4548 417.369 15.961 417.369 16.5067V16.6677C417.369 17.2134 417.29 17.7196 417.131 18.186C416.973 18.6525 416.742 19.0607 416.439 19.4105C416.135 19.7557 415.767 20.0263 415.333 20.2222C414.899 20.4135 414.407 20.5091 413.857 20.5091C413.302 20.5091 412.805 20.4135 412.366 20.2222C411.932 20.0263 411.564 19.7557 411.261 19.4105C410.957 19.0607 410.727 18.6525 410.568 18.186C410.409 17.7196 410.33 17.2134 410.33 16.6677ZM412.016 16.5067V16.6677C412.016 17.0082 412.051 17.3301 412.121 17.6333C412.191 17.9365 412.301 18.2024 412.45 18.4309C412.599 18.6595 412.791 18.8391 413.024 18.9697C413.257 19.1003 413.535 19.1656 413.857 19.1656C414.169 19.1656 414.44 19.1003 414.668 18.9697C414.902 18.8391 415.093 18.6595 415.242 18.4309C415.391 18.2024 415.501 17.9365 415.571 17.6333C415.646 17.3301 415.683 17.0082 415.683 16.6677V16.5067C415.683 16.1709 415.646 15.8537 415.571 15.5551C415.501 15.2519 415.389 14.9837 415.235 14.7505C415.086 14.5172 414.895 14.3353 414.661 14.2047C414.433 14.0694 414.16 14.0018 413.843 14.0018C413.525 14.0018 413.25 14.0694 413.017 14.2047C412.788 14.3353 412.599 14.5172 412.45 14.7505C412.301 14.9837 412.191 15.2519 412.121 15.5551C412.051 15.8537 412.016 16.1709 412.016 16.5067ZM420.84 18.6898L422.589 12.7983H423.667L423.373 14.5615L421.609 20.3691H420.644L420.84 18.6898ZM419.811 12.7983L421.176 18.7178L421.288 20.3691H420.21L418.16 12.7983H419.811ZM425.304 18.6478L426.626 12.7983H428.271L426.228 20.3691H425.15L425.304 18.6478ZM423.848 12.7983L425.577 18.6199L425.794 20.3691H424.828L423.044 14.5545L422.75 12.7983H423.848ZM431.091 14.4146V20.3691H429.404V12.7983H430.993L431.091 14.4146ZM430.79 16.3038L430.244 16.2968C430.249 15.7604 430.323 15.2682 430.468 14.8204C430.617 14.3726 430.822 13.9878 431.084 13.6659C431.349 13.344 431.667 13.0968 432.035 12.9242C432.404 12.7469 432.814 12.6583 433.267 12.6583C433.63 12.6583 433.959 12.7096 434.253 12.8123C434.552 12.9102 434.806 13.0711 435.016 13.2951C435.23 13.519 435.394 13.8105 435.506 14.1697C435.618 14.5242 435.674 14.9604 435.674 15.4782V20.3691H433.98V15.4712C433.98 15.1073 433.927 14.8204 433.819 14.6105C433.717 14.3959 433.565 14.2443 433.365 14.1557C433.169 14.0624 432.924 14.0158 432.63 14.0158C432.341 14.0158 432.082 14.0764 431.853 14.1977C431.625 14.319 431.431 14.4846 431.272 14.6945C431.118 14.9044 431 15.147 430.916 15.4222C430.832 15.6974 430.79 15.9913 430.79 16.3038Z" fill="black"/>
</svg>
