<svg width="31" height="26" viewBox="0 0 31 26" fill="none" xmlns="http://www.w3.org/2000/svg">
<path d="M1.5 5.8125L12.9309 14.0284C13.8565 14.6938 14.3193 15.0264 14.8228 15.1553C15.2675 15.2691 15.7325 15.2691 16.1772 15.1553C16.6807 15.0264 17.1435 14.6938 18.0691 14.0285L29.5 5.8125M8.22 24.5H22.78C25.1322 24.5 26.3083 24.5 27.2068 24.03C27.997 23.6165 28.6396 22.9568 29.0422 22.1453C29.5 21.2228 29.5 20.0152 29.5 17.6V8.4C29.5 5.98477 29.5 4.77716 29.0422 3.85467C28.6396 3.04322 27.997 2.38349 27.2068 1.97003C26.3083 1.5 25.1322 1.5 22.78 1.5H8.22C5.86778 1.5 4.69167 1.5 3.79324 1.97003C3.00296 2.38349 2.36044 3.04322 1.95777 3.85467C1.5 4.77716 1.5 5.98477 1.5 8.4V17.6C1.5 20.0152 1.5 21.2228 1.95777 22.1453C2.36044 22.9568 3.00296 23.6165 3.79324 24.03C4.69167 24.5 5.86778 24.5 8.22 24.5Z" stroke="#FFA3FA" stroke-width="3" stroke-linecap="round" stroke-linejoin="round"/>
</svg>
