<svg width="110" height="110" viewBox="0 0 110 110" fill="none" xmlns="http://www.w3.org/2000/svg">
<path d="M90.5106 22.9165C97.0067 31.9467 100.833 43.0265 100.833 54.9998C100.833 66.9732 97.0067 78.0529 90.5106 87.0832M72.1654 36.6665C75.7902 41.8632 77.916 48.1833 77.916 54.9998C77.916 61.8164 75.7902 68.1364 72.1654 73.3332M44.1566 20.0092L29.6472 34.5186C28.8545 35.3113 28.4582 35.7077 27.9957 35.9911C27.5856 36.2424 27.1385 36.4276 26.6708 36.5399C26.1433 36.6665 25.5828 36.6665 24.4618 36.6665H16.4993C13.9324 36.6665 12.649 36.6665 11.6686 37.1661C10.8061 37.6055 10.105 38.3066 9.66557 39.169C9.16602 40.1495 9.16602 41.4329 9.16602 43.9998V65.9998C9.16602 68.5667 9.16602 69.8502 9.66557 70.8306C10.105 71.693 10.8061 72.3942 11.6686 72.8336C12.649 73.3332 13.9324 73.3332 16.4993 73.3332H24.4618C25.5828 73.3332 26.1433 73.3332 26.6708 73.4598C27.1385 73.5721 27.5856 73.7573 27.9957 74.0086C28.4582 74.292 28.8545 74.6884 29.6472 75.481L44.1566 89.9904C46.12 91.9538 47.1017 92.9355 47.9446 93.0019C48.6759 93.0594 49.3905 92.7634 49.8669 92.2056C50.416 91.5627 50.416 90.1744 50.416 87.3977V22.6019C50.416 19.8253 50.416 18.437 49.8669 17.7941C49.3905 17.2363 48.6759 16.9402 47.9446 16.9978C47.1017 17.0641 46.12 18.0458 44.1566 20.0092Z" stroke="white" stroke-width="8" stroke-linecap="round" stroke-linejoin="round"/>
</svg>
