<svg width="251" height="120" viewBox="0 0 251 120" fill="none" xmlns="http://www.w3.org/2000/svg">
<path d="M52.693 43.7063V55.5485C52.693 61.2209 52.129 66.0639 51.0012 70.0777C49.9066 74.0583 48.3143 77.2925 46.2245 79.7803C44.1347 82.2682 41.6303 84.0926 38.7112 85.2536C35.8252 86.4146 32.591 86.9951 29.0085 86.9951C26.1557 86.9951 23.502 86.6303 21.0473 85.9005C18.6258 85.1707 16.4365 84.0263 14.4794 82.4672C12.5222 80.9082 10.8471 78.9013 9.45388 76.4466C8.09385 73.9587 7.03236 70.9899 6.26942 67.54C5.53964 64.0902 5.17476 60.093 5.17476 55.5485V43.7063C5.17476 38.0008 5.73867 33.1909 6.8665 29.2767C7.99434 25.3293 9.60315 22.1282 11.693 19.6735C13.7828 17.1857 16.2706 15.3778 19.1566 14.25C22.0756 13.1222 25.3265 12.5583 28.909 12.5583C31.7949 12.5583 34.4486 12.9231 36.8701 13.6529C39.3248 14.3495 41.5142 15.4608 43.4381 16.9867C45.3952 18.5125 47.0538 20.5028 48.4138 22.9575C49.807 25.379 50.8685 28.3147 51.5983 31.7646C52.3281 35.1812 52.693 39.1618 52.693 43.7063ZM40.7015 57.2403V41.9151C40.7015 39.0291 40.5356 36.4915 40.2039 34.3022C39.8722 32.0797 39.3746 30.2055 38.7112 28.6796C38.0809 27.1206 37.2848 25.86 36.3228 24.8981C35.3608 23.9029 34.2662 23.1897 33.0388 22.7585C31.8115 22.2941 30.4349 22.0619 28.909 22.0619C27.0514 22.0619 25.3928 22.4268 23.9333 23.1566C22.4737 23.8532 21.2464 24.981 20.2512 26.5401C19.2561 28.0991 18.4931 30.1557 17.9624 32.71C17.4648 35.231 17.216 38.2994 17.216 41.9151V57.2403C17.216 60.1594 17.3819 62.7302 17.7136 64.9527C18.0453 67.1752 18.5429 69.0825 19.2063 70.6748C19.8697 72.2338 20.6659 73.5275 21.5947 74.5558C22.5566 75.551 23.6513 76.2807 24.8786 76.7451C26.1392 77.2095 27.5158 77.4417 29.0085 77.4417C30.8993 77.4417 32.5744 77.0769 34.034 76.3471C35.4935 75.6173 36.7209 74.4563 37.716 72.8641C38.7112 71.2387 39.4575 69.1323 39.9551 66.5449C40.4527 63.9575 40.7015 60.856 40.7015 57.2403ZM75.434 44.3532H82.5991C85.3855 44.3532 87.6909 43.8722 89.5153 42.9102C91.3729 41.9482 92.7496 40.6214 93.6452 38.9296C94.5408 37.2379 94.9886 35.2973 94.9886 33.108C94.9886 30.8192 94.574 28.8621 93.7447 27.2367C92.9486 25.5781 91.7212 24.301 90.0627 23.4053C88.4373 22.5097 86.364 22.0619 83.843 22.0619C81.72 22.0619 79.7961 22.4931 78.0712 23.3556C76.3794 24.1849 75.036 25.379 74.0408 26.9381C73.0457 28.464 72.5481 30.2884 72.5481 32.4114H60.5068C60.5068 28.5635 61.5186 25.1468 63.542 22.1614C65.5655 19.176 68.3187 16.8374 71.8017 15.1456C75.3179 13.4207 79.2653 12.5583 83.644 12.5583C88.3212 12.5583 92.4013 13.3378 95.8843 14.8968C99.4004 16.4227 102.137 18.7116 104.094 21.7634C106.051 24.8151 107.03 28.5967 107.03 33.108C107.03 35.1646 106.549 37.2545 105.587 39.3774C104.625 41.5004 103.199 43.4409 101.308 45.199C99.417 46.9239 97.0619 48.3337 94.2423 49.4284C91.4227 50.4899 88.1553 51.0206 84.4401 51.0206H75.434V44.3532ZM75.434 53.7075V47.1396H84.4401C88.686 47.1396 92.3017 47.6371 95.2872 48.6323C98.3058 49.6274 100.76 51.004 102.651 52.7621C104.542 54.4871 105.919 56.4608 106.781 58.6833C107.677 60.9057 108.125 63.2609 108.125 65.7488C108.125 69.1323 107.511 72.1509 106.284 74.8046C105.089 77.4252 103.381 79.6477 101.159 81.4721C98.936 83.2965 96.3321 84.6731 93.3466 85.6019C90.3944 86.5307 87.1767 86.9951 83.6937 86.9951C80.5756 86.9951 77.5902 86.5639 74.7374 85.7015C71.8847 84.839 69.3305 83.5619 67.0748 81.8701C64.8191 80.1452 63.0279 78.0057 61.701 75.4515C60.4073 72.8641 59.7605 69.8786 59.7605 66.4951H71.752C71.752 68.6513 72.2496 70.5587 73.2447 72.2172C74.273 73.8426 75.6994 75.1197 77.5238 76.0485C79.3814 76.9773 81.5044 77.4417 83.8928 77.4417C86.4138 77.4417 88.5865 76.9939 90.411 76.0983C92.2354 75.2027 93.6286 73.8758 94.5906 72.1177C95.5857 70.3596 96.0833 68.2367 96.0833 65.7488C96.0833 62.9292 95.536 60.6404 94.4413 58.8823C93.3466 57.1242 91.7876 55.8305 89.7641 55.0012C87.7407 54.1388 85.3523 53.7075 82.5991 53.7075H75.434ZM118.078 80.0291C118.078 78.1715 118.708 76.6125 119.969 75.3519C121.229 74.0583 122.938 73.4114 125.094 73.4114C127.283 73.4114 128.991 74.0583 130.219 75.3519C131.479 76.6125 132.11 78.1715 132.11 80.0291C132.11 81.8867 131.479 83.4458 130.219 84.7063C128.991 85.9668 127.283 86.5971 125.094 86.5971C122.938 86.5971 121.229 85.9668 119.969 84.7063C118.708 83.4458 118.078 81.8867 118.078 80.0291ZM118.128 37.6359C118.128 35.7783 118.758 34.2193 120.019 32.9587C121.279 31.6651 122.987 31.0182 125.144 31.0182C127.333 31.0182 129.041 31.6651 130.269 32.9587C131.529 34.2193 132.159 35.7783 132.159 37.6359C132.159 39.4935 131.529 41.0526 130.269 42.3131C129.041 43.5736 127.333 44.2039 125.144 44.2039C122.987 44.2039 121.279 43.5736 120.019 42.3131C118.758 41.0526 118.128 39.4935 118.128 37.6359ZM189.283 43.7063V55.5485C189.283 61.2209 188.719 66.0639 187.591 70.0777C186.496 74.0583 184.904 77.2925 182.814 79.7803C180.724 82.2682 178.22 84.0926 175.301 85.2536C172.415 86.4146 169.181 86.9951 165.598 86.9951C162.745 86.9951 160.092 86.6303 157.637 85.9005C155.216 85.1707 153.026 84.0263 151.069 82.4672C149.112 80.9082 147.437 78.9013 146.044 76.4466C144.684 73.9587 143.622 70.9899 142.859 67.54C142.129 64.0902 141.764 60.093 141.764 55.5485V43.7063C141.764 38.0008 142.328 33.1909 143.456 29.2767C144.584 25.3293 146.193 22.1282 148.283 19.6735C150.372 17.1857 152.86 15.3778 155.746 14.25C158.665 13.1222 161.916 12.5583 165.499 12.5583C168.385 12.5583 171.038 12.9231 173.46 13.6529C175.915 14.3495 178.104 15.4608 180.028 16.9867C181.985 18.5125 183.644 20.5028 185.004 22.9575C186.397 25.379 187.458 28.3147 188.188 31.7646C188.918 35.1812 189.283 39.1618 189.283 43.7063ZM177.291 57.2403V41.9151C177.291 39.0291 177.125 36.4915 176.794 34.3022C176.462 32.0797 175.964 30.2055 175.301 28.6796C174.671 27.1206 173.874 25.86 172.913 24.8981C171.951 23.9029 170.856 23.1897 169.629 22.7585C168.401 22.2941 167.025 22.0619 165.499 22.0619C163.641 22.0619 161.983 22.4268 160.523 23.1566C159.063 23.8532 157.836 24.981 156.841 26.5401C155.846 28.0991 155.083 30.1557 154.552 32.71C154.055 35.231 153.806 38.2994 153.806 41.9151V57.2403C153.806 60.1594 153.972 62.7302 154.303 64.9527C154.635 67.1752 155.133 69.0825 155.796 70.6748C156.459 72.2338 157.256 73.5275 158.184 74.5558C159.146 75.551 160.241 76.2807 161.468 76.7451C162.729 77.2095 164.105 77.4417 165.598 77.4417C167.489 77.4417 169.164 77.0769 170.624 76.3471C172.083 75.6173 173.311 74.4563 174.306 72.8641C175.301 71.2387 176.047 69.1323 176.545 66.5449C177.042 63.9575 177.291 60.856 177.291 57.2403ZM245.162 43.7063V55.5485C245.162 61.2209 244.598 66.0639 243.47 70.0777C242.376 74.0583 240.783 77.2925 238.694 79.7803C236.604 82.2682 234.099 84.0926 231.18 85.2536C228.294 86.4146 225.06 86.9951 221.478 86.9951C218.625 86.9951 215.971 86.6303 213.516 85.9005C211.095 85.1707 208.906 84.0263 206.948 82.4672C204.991 80.9082 203.316 78.9013 201.923 76.4466C200.563 73.9587 199.501 70.9899 198.739 67.54C198.009 64.0902 197.644 60.093 197.644 55.5485V43.7063C197.644 38.0008 198.208 33.1909 199.336 29.2767C200.463 25.3293 202.072 22.1282 204.162 19.6735C206.252 17.1857 208.74 15.3778 211.626 14.25C214.545 13.1222 217.796 12.5583 221.378 12.5583C224.264 12.5583 226.918 12.9231 229.339 13.6529C231.794 14.3495 233.983 15.4608 235.907 16.9867C237.864 18.5125 239.523 20.5028 240.883 22.9575C242.276 25.379 243.338 28.3147 244.067 31.7646C244.797 35.1812 245.162 39.1618 245.162 43.7063ZM233.171 57.2403V41.9151C233.171 39.0291 233.005 36.4915 232.673 34.3022C232.341 32.0797 231.844 30.2055 231.18 28.6796C230.55 27.1206 229.754 25.86 228.792 24.8981C227.83 23.9029 226.735 23.1897 225.508 22.7585C224.281 22.2941 222.904 22.0619 221.378 22.0619C219.52 22.0619 217.862 22.4268 216.402 23.1566C214.943 23.8532 213.715 24.981 212.72 26.5401C211.725 28.0991 210.962 30.1557 210.431 32.71C209.934 35.231 209.685 38.2994 209.685 41.9151V57.2403C209.685 60.1594 209.851 62.7302 210.183 64.9527C210.514 67.1752 211.012 69.0825 211.675 70.6748C212.339 72.2338 213.135 73.5275 214.064 74.5558C215.026 75.551 216.12 76.2807 217.348 76.7451C218.608 77.2095 219.985 77.4417 221.478 77.4417C223.368 77.4417 225.044 77.0769 226.503 76.3471C227.963 75.6173 229.19 74.4563 230.185 72.8641C231.18 71.2387 231.927 69.1323 232.424 66.5449C232.922 63.9575 233.171 60.856 233.171 57.2403Z" fill="white"/>
<path opacity="0.6" d="M82.7083 105.944V115H81.0041V105.944H82.7083ZM85.5196 105.944V107.294H78.2239V105.944H85.5196ZM88.4023 108.27V115H86.7541V108.27H88.4023ZM86.6421 106.51C86.6421 106.266 86.725 106.062 86.8909 105.901C87.0609 105.739 87.289 105.658 87.5751 105.658C87.8612 105.658 88.0871 105.739 88.253 105.901C88.423 106.062 88.508 106.266 88.508 106.51C88.508 106.751 88.423 106.952 88.253 107.113C88.0871 107.275 87.8612 107.356 87.5751 107.356C87.289 107.356 87.0609 107.275 86.8909 107.113C86.725 106.952 86.6421 106.751 86.6421 106.51ZM91.7328 109.651V115H90.0908V108.27H91.6395L91.7328 109.651ZM91.4902 111.393H90.9864C90.9864 110.924 91.0424 110.493 91.1544 110.099C91.2705 109.705 91.4405 109.363 91.6644 109.073C91.8883 108.778 92.164 108.55 92.4916 108.389C92.8233 108.227 93.2068 108.146 93.6422 108.146C93.9449 108.146 94.2227 108.192 94.4757 108.283C94.7286 108.37 94.9463 108.509 95.1287 108.699C95.3153 108.886 95.4584 109.131 95.5579 109.433C95.6574 109.732 95.7071 110.091 95.7071 110.509V115H94.0652V110.677C94.0652 110.362 94.0195 110.115 93.9283 109.937C93.8412 109.759 93.7148 109.635 93.5489 109.564C93.3831 109.489 93.184 109.452 92.9518 109.452C92.6948 109.452 92.4729 109.504 92.2863 109.608C92.1039 109.707 91.9525 109.846 91.8323 110.024C91.7162 110.203 91.6291 110.408 91.5711 110.64C91.5172 110.872 91.4902 111.123 91.4902 111.393ZM95.5828 111.088L94.9048 111.212C94.909 110.789 94.967 110.393 95.079 110.024C95.1909 109.651 95.3547 109.326 95.5703 109.048C95.7901 108.766 96.0617 108.546 96.3851 108.389C96.7127 108.227 97.09 108.146 97.5171 108.146C97.8488 108.146 98.1473 108.194 98.4127 108.289C98.6822 108.38 98.9123 108.527 99.1031 108.731C99.2938 108.93 99.4389 109.189 99.5385 109.508C99.6421 109.827 99.6939 110.217 99.6939 110.677V115H98.0395V110.671C98.0395 110.344 97.9939 110.093 97.9027 109.919C97.8156 109.744 97.6891 109.624 97.5233 109.558C97.3574 109.487 97.1625 109.452 96.9386 109.452C96.7106 109.452 96.5116 109.496 96.3416 109.583C96.1757 109.666 96.0347 109.782 95.9186 109.931C95.8067 110.08 95.7217 110.254 95.6636 110.453C95.6097 110.648 95.5828 110.86 95.5828 111.088ZM104.318 115.124C103.808 115.124 103.35 115.041 102.944 114.876C102.537 114.71 102.191 114.48 101.905 114.185C101.623 113.887 101.405 113.54 101.252 113.147C101.103 112.748 101.028 112.321 101.028 111.865V111.617C101.028 111.098 101.103 110.628 101.252 110.205C101.401 109.778 101.613 109.411 101.886 109.104C102.16 108.797 102.487 108.561 102.869 108.395C103.25 108.229 103.671 108.146 104.132 108.146C104.608 108.146 105.029 108.227 105.394 108.389C105.759 108.546 106.064 108.77 106.308 109.06C106.553 109.35 106.738 109.699 106.862 110.105C106.986 110.507 107.049 110.953 107.049 111.442V112.133H101.774V111.001H105.431V110.876C105.423 110.615 105.373 110.377 105.282 110.161C105.191 109.941 105.05 109.767 104.859 109.639C104.669 109.506 104.422 109.44 104.119 109.44C103.874 109.44 103.661 109.494 103.478 109.601C103.3 109.705 103.151 109.854 103.031 110.049C102.915 110.24 102.827 110.468 102.769 110.733C102.711 110.999 102.682 111.293 102.682 111.617V111.865C102.682 112.147 102.72 112.408 102.794 112.649C102.873 112.889 102.987 113.099 103.136 113.277C103.29 113.451 103.472 113.588 103.684 113.688C103.899 113.783 104.144 113.831 104.418 113.831C104.762 113.831 105.073 113.764 105.351 113.632C105.633 113.495 105.877 113.294 106.085 113.028L106.912 113.887C106.771 114.094 106.58 114.293 106.34 114.484C106.103 114.675 105.817 114.83 105.481 114.95C105.145 115.066 104.758 115.124 104.318 115.124ZM111.701 105.944H114.991C115.679 105.944 116.27 106.048 116.763 106.255C117.257 106.462 117.636 106.769 117.902 107.176C118.167 107.582 118.3 108.082 118.3 108.675C118.3 109.143 118.217 109.55 118.051 109.894C117.885 110.238 117.651 110.526 117.348 110.758C117.05 110.99 116.697 111.173 116.291 111.306L115.756 111.579H112.851L112.839 110.23H115.009C115.362 110.23 115.654 110.167 115.886 110.043C116.119 109.919 116.293 109.746 116.409 109.527C116.529 109.307 116.589 109.056 116.589 108.774C116.589 108.471 116.531 108.21 116.415 107.99C116.299 107.767 116.123 107.594 115.886 107.474C115.65 107.354 115.352 107.294 114.991 107.294H113.411V115H111.701V105.944ZM116.813 115L114.717 110.945L116.527 110.939L118.648 114.913V115H116.813ZM122.824 115.124C122.314 115.124 121.856 115.041 121.45 114.876C121.043 114.71 120.697 114.48 120.411 114.185C120.129 113.887 119.911 113.54 119.758 113.147C119.609 112.748 119.534 112.321 119.534 111.865V111.617C119.534 111.098 119.609 110.628 119.758 110.205C119.907 109.778 120.119 109.411 120.392 109.104C120.666 108.797 120.994 108.561 121.375 108.395C121.757 108.229 122.178 108.146 122.638 108.146C123.115 108.146 123.535 108.227 123.9 108.389C124.265 108.546 124.57 108.77 124.815 109.06C125.059 109.35 125.244 109.699 125.368 110.105C125.493 110.507 125.555 110.953 125.555 111.442V112.133H120.281V111.001H123.938V110.876C123.929 110.615 123.88 110.377 123.788 110.161C123.697 109.941 123.556 109.767 123.365 109.639C123.175 109.506 122.928 109.44 122.625 109.44C122.381 109.44 122.167 109.494 121.985 109.601C121.806 109.705 121.657 109.854 121.537 110.049C121.421 110.24 121.334 110.468 121.276 110.733C121.218 110.999 121.189 111.293 121.189 111.617V111.865C121.189 112.147 121.226 112.408 121.301 112.649C121.379 112.889 121.493 113.099 121.643 113.277C121.796 113.451 121.978 113.588 122.19 113.688C122.406 113.783 122.65 113.831 122.924 113.831C123.268 113.831 123.579 113.764 123.857 113.632C124.139 113.495 124.383 113.294 124.591 113.028L125.418 113.887C125.277 114.094 125.086 114.293 124.846 114.484C124.609 114.675 124.323 114.83 123.987 114.95C123.652 115.066 123.264 115.124 122.824 115.124ZM128.419 109.651V115H126.777V108.27H128.326L128.419 109.651ZM128.176 111.393H127.672C127.672 110.924 127.728 110.493 127.84 110.099C127.956 109.705 128.126 109.363 128.35 109.073C128.574 108.778 128.85 108.55 129.178 108.389C129.509 108.227 129.893 108.146 130.328 108.146C130.631 108.146 130.909 108.192 131.162 108.283C131.415 108.37 131.632 108.509 131.815 108.699C132.001 108.886 132.144 109.131 132.244 109.433C132.343 109.732 132.393 110.091 132.393 110.509V115H130.751V110.677C130.751 110.362 130.706 110.115 130.614 109.937C130.527 109.759 130.401 109.635 130.235 109.564C130.069 109.489 129.87 109.452 129.638 109.452C129.381 109.452 129.159 109.504 128.972 109.608C128.79 109.707 128.639 109.846 128.518 110.024C128.402 110.203 128.315 110.408 128.257 110.64C128.203 110.872 128.176 111.123 128.176 111.393ZM132.269 111.088L131.591 111.212C131.595 110.789 131.653 110.393 131.765 110.024C131.877 109.651 132.041 109.326 132.256 109.048C132.476 108.766 132.748 108.546 133.071 108.389C133.399 108.227 133.776 108.146 134.203 108.146C134.535 108.146 134.833 108.194 135.099 108.289C135.368 108.38 135.598 108.527 135.789 108.731C135.98 108.93 136.125 109.189 136.224 109.508C136.328 109.827 136.38 110.217 136.38 110.677V115H134.726V110.671C134.726 110.344 134.68 110.093 134.589 109.919C134.502 109.744 134.375 109.624 134.209 109.558C134.043 109.487 133.849 109.452 133.625 109.452C133.397 109.452 133.198 109.496 133.028 109.583C132.862 109.666 132.721 109.782 132.605 109.931C132.493 110.08 132.408 110.254 132.35 110.453C132.296 110.648 132.269 110.86 132.269 111.088ZM141.688 113.569V110.466C141.688 110.238 141.649 110.041 141.57 109.875C141.491 109.709 141.371 109.581 141.209 109.489C141.048 109.398 140.842 109.353 140.594 109.353C140.374 109.353 140.181 109.39 140.015 109.465C139.854 109.539 139.729 109.645 139.642 109.782C139.555 109.914 139.511 110.068 139.511 110.242H137.863C137.863 109.964 137.93 109.701 138.062 109.452C138.195 109.199 138.384 108.975 138.628 108.78C138.877 108.581 139.174 108.426 139.518 108.314C139.866 108.202 140.256 108.146 140.687 108.146C141.197 108.146 141.651 108.233 142.049 108.407C142.451 108.577 142.766 108.834 142.994 109.178C143.227 109.523 143.343 109.956 143.343 110.478V113.414C143.343 113.75 143.364 114.038 143.405 114.279C143.451 114.515 143.517 114.72 143.604 114.894V115H141.931C141.852 114.83 141.792 114.614 141.751 114.353C141.709 114.088 141.688 113.827 141.688 113.569ZM141.918 110.901L141.931 111.878H140.892C140.635 111.878 140.409 111.905 140.214 111.959C140.019 112.008 139.86 112.083 139.735 112.182C139.611 112.278 139.518 112.394 139.455 112.531C139.393 112.663 139.362 112.815 139.362 112.985C139.362 113.151 139.4 113.3 139.474 113.433C139.553 113.565 139.665 113.671 139.81 113.75C139.959 113.824 140.133 113.862 140.332 113.862C140.623 113.862 140.876 113.804 141.091 113.688C141.307 113.567 141.475 113.422 141.595 113.252C141.715 113.082 141.78 112.921 141.788 112.767L142.261 113.476C142.203 113.646 142.115 113.827 141.999 114.017C141.883 114.208 141.734 114.386 141.552 114.552C141.369 114.718 141.149 114.855 140.892 114.963C140.635 115.07 140.337 115.124 139.997 115.124C139.561 115.124 139.171 115.037 138.827 114.863C138.483 114.689 138.212 114.451 138.013 114.148C137.813 113.845 137.714 113.501 137.714 113.115C137.714 112.759 137.78 112.444 137.913 112.17C138.046 111.896 138.243 111.666 138.504 111.48C138.765 111.289 139.089 111.146 139.474 111.051C139.864 110.951 140.31 110.901 140.811 110.901H141.918ZM146.692 108.27V115H145.044V108.27H146.692ZM144.932 106.51C144.932 106.266 145.015 106.062 145.181 105.901C145.351 105.739 145.579 105.658 145.865 105.658C146.151 105.658 146.377 105.739 146.543 105.901C146.713 106.062 146.798 106.266 146.798 106.51C146.798 106.751 146.713 106.952 146.543 107.113C146.377 107.275 146.151 107.356 145.865 107.356C145.579 107.356 145.351 107.275 145.181 107.113C145.015 106.952 144.932 106.751 144.932 106.51ZM149.998 109.707V115H148.356V108.27H149.898L149.998 109.707ZM149.736 111.393H149.251C149.255 110.903 149.322 110.46 149.45 110.062C149.579 109.664 149.759 109.321 149.991 109.035C150.228 108.749 150.508 108.529 150.831 108.376C151.154 108.223 151.515 108.146 151.913 108.146C152.237 108.146 152.529 108.192 152.79 108.283C153.051 108.374 153.275 108.519 153.462 108.718C153.653 108.917 153.798 109.178 153.897 109.502C154.001 109.821 154.053 110.215 154.053 110.684V115H152.398V110.671C152.398 110.364 152.353 110.122 152.262 109.943C152.174 109.765 152.046 109.639 151.876 109.564C151.71 109.489 151.505 109.452 151.26 109.452C151.007 109.452 150.785 109.504 150.595 109.608C150.408 109.707 150.25 109.846 150.122 110.024C149.998 110.203 149.902 110.408 149.836 110.64C149.77 110.872 149.736 111.123 149.736 111.393ZM157.371 108.27V115H155.723V108.27H157.371ZM155.611 106.51C155.611 106.266 155.694 106.062 155.859 105.901C156.029 105.739 156.258 105.658 156.544 105.658C156.83 105.658 157.056 105.739 157.222 105.901C157.392 106.062 157.477 106.266 157.477 106.51C157.477 106.751 157.392 106.952 157.222 107.113C157.056 107.275 156.83 107.356 156.544 107.356C156.258 107.356 156.029 107.275 155.859 107.113C155.694 106.952 155.611 106.751 155.611 106.51ZM160.676 109.707V115H159.034V108.27H160.577L160.676 109.707ZM160.415 111.393H159.93C159.934 110.903 160.001 110.46 160.129 110.062C160.258 109.664 160.438 109.321 160.67 109.035C160.907 108.749 161.186 108.529 161.51 108.376C161.833 108.223 162.194 108.146 162.592 108.146C162.916 108.146 163.208 108.192 163.469 108.283C163.73 108.374 163.954 108.519 164.141 108.718C164.332 108.917 164.477 109.178 164.576 109.502C164.68 109.821 164.732 110.215 164.732 110.684V115H163.077V110.671C163.077 110.364 163.032 110.122 162.94 109.943C162.853 109.765 162.725 109.639 162.555 109.564C162.389 109.489 162.184 109.452 161.939 109.452C161.686 109.452 161.464 109.504 161.274 109.608C161.087 109.707 160.929 109.846 160.801 110.024C160.676 110.203 160.581 110.408 160.515 110.64C160.448 110.872 160.415 111.123 160.415 111.393ZM170.587 108.27H172.08V114.795C172.08 115.404 171.947 115.921 171.682 116.343C171.421 116.771 171.054 117.094 170.581 117.314C170.108 117.538 169.559 117.65 168.933 117.65C168.663 117.65 168.371 117.612 168.056 117.538C167.745 117.463 167.444 117.345 167.154 117.183C166.868 117.026 166.63 116.82 166.439 116.567L167.179 115.597C167.403 115.858 167.656 116.055 167.938 116.188C168.22 116.325 168.525 116.393 168.852 116.393C169.184 116.393 169.466 116.331 169.698 116.207C169.934 116.086 170.115 115.908 170.239 115.672C170.368 115.44 170.432 115.153 170.432 114.813V109.807L170.587 108.27ZM166.041 111.716V111.585C166.041 111.071 166.103 110.605 166.227 110.186C166.352 109.763 166.53 109.4 166.762 109.098C166.999 108.795 167.283 108.561 167.614 108.395C167.95 108.229 168.328 108.146 168.746 108.146C169.19 108.146 169.563 108.227 169.866 108.389C170.173 108.55 170.426 108.78 170.625 109.079C170.828 109.377 170.985 109.732 171.097 110.142C171.213 110.549 171.303 110.997 171.365 111.486V111.84C171.307 112.317 171.213 112.755 171.085 113.153C170.961 113.551 170.795 113.899 170.587 114.198C170.38 114.492 170.123 114.72 169.816 114.882C169.509 115.044 169.149 115.124 168.734 115.124C168.319 115.124 167.946 115.039 167.614 114.869C167.283 114.699 166.999 114.461 166.762 114.154C166.53 113.847 166.352 113.487 166.227 113.072C166.103 112.657 166.041 112.205 166.041 111.716ZM167.683 111.585V111.716C167.683 112.006 167.712 112.278 167.77 112.531C167.828 112.784 167.917 113.008 168.037 113.203C168.158 113.393 168.309 113.543 168.491 113.65C168.674 113.758 168.891 113.812 169.144 113.812C169.484 113.812 169.762 113.742 169.978 113.601C170.198 113.455 170.363 113.258 170.475 113.01C170.592 112.757 170.666 112.473 170.699 112.158V111.181C170.679 110.932 170.633 110.702 170.563 110.491C170.496 110.279 170.403 110.097 170.283 109.943C170.162 109.79 170.009 109.67 169.822 109.583C169.636 109.496 169.414 109.452 169.157 109.452C168.908 109.452 168.69 109.508 168.504 109.62C168.317 109.728 168.164 109.879 168.044 110.074C167.923 110.269 167.832 110.495 167.77 110.752C167.712 111.009 167.683 111.287 167.683 111.585Z" fill="white"/>
</svg>
