<svg width="282" height="67" viewBox="0 0 282 67" fill="none" xmlns="http://www.w3.org/2000/svg">
<path d="M81.3247 22.1574V27.1533C81.3247 29.5463 81.0868 31.5895 80.611 33.2828C80.1492 34.9621 79.4775 36.3265 78.5958 37.3761C77.7142 38.4256 76.6576 39.1953 75.4261 39.6851C74.2086 40.1749 72.8442 40.4198 71.3328 40.4198C70.1293 40.4198 69.0098 40.2659 67.9742 39.958C66.9526 39.6501 66.029 39.1673 65.2033 38.5096C64.3777 37.8519 63.671 37.0052 63.0832 35.9697C62.5094 34.9201 62.0616 33.6676 61.7398 32.2122C61.4319 30.7568 61.2779 29.0705 61.2779 27.1533V22.1574C61.2779 19.7503 61.5159 17.7212 61.9917 16.0699C62.4675 14.4045 63.1462 13.0541 64.0278 12.0185C64.9095 10.969 65.959 10.2063 67.1765 9.73047C68.408 9.25467 69.7794 9.01677 71.2908 9.01677C72.5083 9.01677 73.6279 9.1707 74.6494 9.47857C75.685 9.77245 76.6086 10.2413 77.4203 10.885C78.246 11.5287 78.9457 12.3684 79.5194 13.404C80.1072 14.4255 80.555 15.664 80.8629 17.1194C81.1708 18.5608 81.3247 20.2401 81.3247 22.1574ZM76.2658 27.867V21.4017C76.2658 20.1842 76.1958 19.1136 76.0559 18.19C75.9159 17.2524 75.706 16.4617 75.4261 15.818C75.1602 15.1602 74.8244 14.6285 74.4185 14.2226C74.0127 13.8028 73.5509 13.5019 73.0331 13.32C72.5153 13.1241 71.9346 13.0261 71.2908 13.0261C70.5071 13.0261 69.8074 13.18 69.1917 13.4879C68.5759 13.7818 68.0582 14.2576 67.6383 14.9153C67.2185 15.5731 66.8966 16.4407 66.6727 17.5183C66.4628 18.5818 66.3579 19.8763 66.3579 21.4017V27.867C66.3579 29.0985 66.4278 30.183 66.5678 31.1207C66.7077 32.0583 66.9176 32.8629 67.1975 33.5347C67.4774 34.1924 67.8133 34.7382 68.2051 35.172C68.6109 35.5918 69.0727 35.8997 69.5905 36.0956C70.1223 36.2915 70.7031 36.3895 71.3328 36.3895C72.1305 36.3895 72.8372 36.2356 73.4529 35.9277C74.0687 35.6198 74.5865 35.13 75.0063 34.4583C75.4261 33.7726 75.741 32.8839 75.9509 31.7924C76.1608 30.7008 76.2658 29.3924 76.2658 27.867ZM104.899 22.1574V27.1533C104.899 29.5463 104.661 31.5895 104.185 33.2828C103.723 34.9621 103.052 36.3265 102.17 37.3761C101.288 38.4256 100.232 39.1953 99.0002 39.6851C97.7827 40.1749 96.4183 40.4198 94.9069 40.4198C93.7034 40.4198 92.5839 40.2659 91.5483 39.958C90.5267 39.6501 89.6031 39.1673 88.7775 38.5096C87.9518 37.8519 87.2451 37.0052 86.6573 35.9697C86.0836 34.9201 85.6358 33.6676 85.3139 32.2122C85.006 30.7568 84.8521 29.0705 84.8521 27.1533V22.1574C84.8521 19.7503 85.09 17.7212 85.5658 16.0699C86.0416 14.4045 86.7203 13.0541 87.6019 12.0185C88.4836 10.969 89.5331 10.2063 90.7506 9.73047C91.9821 9.25467 93.3536 9.01677 94.865 9.01677C96.0824 9.01677 97.202 9.1707 98.2236 9.47857C99.2591 9.77245 100.183 10.2413 100.994 10.885C101.82 11.5287 102.52 12.3684 103.094 13.404C103.681 14.4255 104.129 15.664 104.437 17.1194C104.745 18.5608 104.899 20.2401 104.899 22.1574ZM99.8399 27.867V21.4017C99.8399 20.1842 99.7699 19.1136 99.63 18.19C99.49 17.2524 99.2801 16.4617 99.0002 15.818C98.7344 15.1602 98.3985 14.6285 97.9927 14.2226C97.5868 13.8028 97.125 13.5019 96.6072 13.32C96.0894 13.1241 95.5087 13.0261 94.865 13.0261C94.0813 13.0261 93.3816 13.18 92.7658 13.4879C92.1501 13.7818 91.6323 14.2576 91.2125 14.9153C90.7926 15.5731 90.4708 16.4407 90.2469 17.5183C90.0369 18.5818 89.932 19.8763 89.932 21.4017V27.867C89.932 29.0985 90.002 30.183 90.1419 31.1207C90.2818 32.0583 90.4918 32.8629 90.7716 33.5347C91.0515 34.1924 91.3874 34.7382 91.7792 35.172C92.1851 35.5918 92.6469 35.8997 93.1647 36.0956C93.6964 36.2915 94.2772 36.3895 94.9069 36.3895C95.7046 36.3895 96.4113 36.2356 97.0271 35.9277C97.6428 35.6198 98.1606 35.13 98.5804 34.4583C99.0002 33.7726 99.3151 32.8839 99.525 31.7924C99.7349 30.7008 99.8399 29.3924 99.8399 27.867ZM108.909 37.481C108.909 36.6974 109.175 36.0396 109.707 35.5079C110.238 34.9621 110.959 34.6892 111.869 34.6892C112.792 34.6892 113.513 34.9621 114.031 35.5079C114.563 36.0396 114.829 36.6974 114.829 37.481C114.829 38.2647 114.563 38.9224 114.031 39.4542C113.513 39.986 112.792 40.2519 111.869 40.2519C110.959 40.2519 110.238 39.986 109.707 39.4542C109.175 38.9224 108.909 38.2647 108.909 37.481ZM108.93 19.5964C108.93 18.8127 109.196 18.155 109.728 17.6232C110.259 17.0774 110.98 16.8046 111.89 16.8046C112.813 16.8046 113.534 17.0774 114.052 17.6232C114.584 18.155 114.85 18.8127 114.85 19.5964C114.85 20.3801 114.584 21.0378 114.052 21.5696C113.534 22.1014 112.813 22.3673 111.89 22.3673C110.98 22.3673 110.259 22.1014 109.728 21.5696C109.196 21.0378 108.93 20.3801 108.93 19.5964ZM138.948 22.1574V27.1533C138.948 29.5463 138.711 31.5895 138.235 33.2828C137.773 34.9621 137.101 36.3265 136.22 37.3761C135.338 38.4256 134.281 39.1953 133.05 39.6851C131.832 40.1749 130.468 40.4198 128.957 40.4198C127.753 40.4198 126.634 40.2659 125.598 39.958C124.576 39.6501 123.653 39.1673 122.827 38.5096C122.001 37.8519 121.295 37.0052 120.707 35.9697C120.133 34.9201 119.685 33.6676 119.364 32.2122C119.056 30.7568 118.902 29.0705 118.902 27.1533V22.1574C118.902 19.7503 119.14 17.7212 119.615 16.0699C120.091 14.4045 120.77 13.0541 121.652 12.0185C122.533 10.969 123.583 10.2063 124.8 9.73047C126.032 9.25467 127.403 9.01677 128.915 9.01677C130.132 9.01677 131.252 9.1707 132.273 9.47857C133.309 9.77245 134.232 10.2413 135.044 10.885C135.87 11.5287 136.569 12.3684 137.143 13.404C137.731 14.4255 138.179 15.664 138.487 17.1194C138.795 18.5608 138.948 20.2401 138.948 22.1574ZM133.89 27.867V21.4017C133.89 20.1842 133.82 19.1136 133.68 18.19C133.54 17.2524 133.33 16.4617 133.05 15.818C132.784 15.1602 132.448 14.6285 132.042 14.2226C131.636 13.8028 131.175 13.5019 130.657 13.32C130.139 13.1241 129.558 13.0261 128.915 13.0261C128.131 13.0261 127.431 13.18 126.815 13.4879C126.2 13.7818 125.682 14.2576 125.262 14.9153C124.842 15.5731 124.52 16.4407 124.297 17.5183C124.087 18.5818 123.982 19.8763 123.982 21.4017V27.867C123.982 29.0985 124.052 30.183 124.192 31.1207C124.331 32.0583 124.541 32.8629 124.821 33.5347C125.101 34.1924 125.437 34.7382 125.829 35.172C126.235 35.5918 126.697 35.8997 127.214 36.0956C127.746 36.2915 128.327 36.3895 128.957 36.3895C129.754 36.3895 130.461 36.2356 131.077 35.9277C131.692 35.6198 132.21 35.13 132.63 34.4583C133.05 33.7726 133.365 32.8839 133.575 31.7924C133.785 30.7008 133.89 29.3924 133.89 27.867ZM162.523 22.1574V27.1533C162.523 29.5463 162.285 31.5895 161.809 33.2828C161.347 34.9621 160.675 36.3265 159.794 37.3761C158.912 38.4256 157.856 39.1953 156.624 39.6851C155.407 40.1749 154.042 40.4198 152.531 40.4198C151.327 40.4198 150.208 40.2659 149.172 39.958C148.151 39.6501 147.227 39.1673 146.401 38.5096C145.576 37.8519 144.869 37.0052 144.281 35.9697C143.707 34.9201 143.26 33.6676 142.938 32.2122C142.63 30.7568 142.476 29.0705 142.476 27.1533V22.1574C142.476 19.7503 142.714 17.7212 143.19 16.0699C143.665 14.4045 144.344 13.0541 145.226 12.0185C146.107 10.969 147.157 10.2063 148.374 9.73047C149.606 9.25467 150.977 9.01677 152.489 9.01677C153.706 9.01677 154.826 9.1707 155.847 9.47857C156.883 9.77245 157.807 10.2413 158.618 10.885C159.444 11.5287 160.144 12.3684 160.717 13.404C161.305 14.4255 161.753 15.664 162.061 17.1194C162.369 18.5608 162.523 20.2401 162.523 22.1574ZM157.464 27.867V21.4017C157.464 20.1842 157.394 19.1136 157.254 18.19C157.114 17.2524 156.904 16.4617 156.624 15.818C156.358 15.1602 156.022 14.6285 155.616 14.2226C155.211 13.8028 154.749 13.5019 154.231 13.32C153.713 13.1241 153.132 13.0261 152.489 13.0261C151.705 13.0261 151.005 13.18 150.39 13.4879C149.774 13.7818 149.256 14.2576 148.836 14.9153C148.416 15.5731 148.095 16.4407 147.871 17.5183C147.661 18.5818 147.556 19.8763 147.556 21.4017V27.867C147.556 29.0985 147.626 30.183 147.766 31.1207C147.906 32.0583 148.116 32.8629 148.395 33.5347C148.675 34.1924 149.011 34.7382 149.403 35.172C149.809 35.5918 150.271 35.8997 150.788 36.0956C151.32 36.2915 151.901 36.3895 152.531 36.3895C153.328 36.3895 154.035 36.2356 154.651 35.9277C155.267 35.6198 155.784 35.13 156.204 34.4583C156.624 33.7726 156.939 32.8839 157.149 31.7924C157.359 30.7008 157.464 29.3924 157.464 27.867ZM166.533 37.481C166.533 36.6974 166.799 36.0396 167.33 35.5079C167.862 34.9621 168.583 34.6892 169.493 34.6892C170.416 34.6892 171.137 34.9621 171.655 35.5079C172.186 36.0396 172.452 36.6974 172.452 37.481C172.452 38.2647 172.186 38.9224 171.655 39.4542C171.137 39.986 170.416 40.2519 169.493 40.2519C168.583 40.2519 167.862 39.986 167.33 39.4542C166.799 38.9224 166.533 38.2647 166.533 37.481ZM166.554 19.5964C166.554 18.8127 166.82 18.155 167.351 17.6232C167.883 17.0774 168.604 16.8046 169.514 16.8046C170.437 16.8046 171.158 17.0774 171.676 17.6232C172.207 18.155 172.473 18.8127 172.473 19.5964C172.473 20.3801 172.207 21.0378 171.676 21.5696C171.158 22.1014 170.437 22.3673 169.514 22.3673C168.604 22.3673 167.883 22.1014 167.351 21.5696C166.82 21.0378 166.554 20.3801 166.554 19.5964ZM196.572 22.1574V27.1533C196.572 29.5463 196.334 31.5895 195.859 33.2828C195.397 34.9621 194.725 36.3265 193.843 37.3761C192.962 38.4256 191.905 39.1953 190.674 39.6851C189.456 40.1749 188.092 40.4198 186.58 40.4198C185.377 40.4198 184.257 40.2659 183.222 39.958C182.2 39.6501 181.277 39.1673 180.451 38.5096C179.625 37.8519 178.919 37.0052 178.331 35.9697C177.757 34.9201 177.309 33.6676 176.987 32.2122C176.679 30.7568 176.526 29.0705 176.526 27.1533V22.1574C176.526 19.7503 176.763 17.7212 177.239 16.0699C177.715 14.4045 178.394 13.0541 179.275 12.0185C180.157 10.969 181.207 10.2063 182.424 9.73047C183.656 9.25467 185.027 9.01677 186.538 9.01677C187.756 9.01677 188.875 9.1707 189.897 9.47857C190.933 9.77245 191.856 10.2413 192.668 10.885C193.494 11.5287 194.193 12.3684 194.767 13.404C195.355 14.4255 195.803 15.664 196.11 17.1194C196.418 18.5608 196.572 20.2401 196.572 22.1574ZM191.513 27.867V21.4017C191.513 20.1842 191.443 19.1136 191.303 18.19C191.163 17.2524 190.954 16.4617 190.674 15.818C190.408 15.1602 190.072 14.6285 189.666 14.2226C189.26 13.8028 188.798 13.5019 188.281 13.32C187.763 13.1241 187.182 13.0261 186.538 13.0261C185.755 13.0261 185.055 13.18 184.439 13.4879C183.824 13.7818 183.306 14.2576 182.886 14.9153C182.466 15.5731 182.144 16.4407 181.92 17.5183C181.71 18.5818 181.605 19.8763 181.605 21.4017V27.867C181.605 29.0985 181.675 30.183 181.815 31.1207C181.955 32.0583 182.165 32.8629 182.445 33.5347C182.725 34.1924 183.061 34.7382 183.453 35.172C183.858 35.5918 184.32 35.8997 184.838 36.0956C185.37 36.2915 185.951 36.3895 186.58 36.3895C187.378 36.3895 188.085 36.2356 188.7 35.9277C189.316 35.6198 189.834 35.13 190.254 34.4583C190.674 33.7726 190.989 32.8839 191.198 31.7924C191.408 30.7008 191.513 29.3924 191.513 27.867ZM205.536 25.7889L201.506 24.8023L203.164 9.43659H219.643V13.7188H207.363L206.523 21.2127C206.999 20.9329 207.657 20.66 208.496 20.3941C209.336 20.1142 210.294 19.9743 211.372 19.9743C212.813 19.9743 214.101 20.2122 215.234 20.688C216.382 21.1498 217.355 21.8285 218.152 22.7241C218.95 23.6058 219.559 24.6833 219.978 25.9568C220.398 27.2163 220.608 28.6367 220.608 30.218C220.608 31.6314 220.398 32.9539 219.978 34.1854C219.573 35.4169 218.957 36.5014 218.131 37.4391C217.306 38.3767 216.263 39.1114 215.003 39.6431C213.758 40.1609 212.282 40.4198 210.574 40.4198C209.301 40.4198 208.076 40.2379 206.901 39.8741C205.739 39.4962 204.697 38.9434 203.773 38.2157C202.85 37.474 202.108 36.5644 201.548 35.4869C200.988 34.3953 200.666 33.1428 200.582 31.7294H205.536C205.662 32.723 205.935 33.5696 206.355 34.2694C206.789 34.9551 207.363 35.4799 208.076 35.8437C208.79 36.2076 209.616 36.3895 210.553 36.3895C211.407 36.3895 212.142 36.2425 212.757 35.9487C213.373 35.6408 213.884 35.207 214.29 34.6472C214.71 34.0734 215.017 33.4017 215.213 32.632C215.423 31.8624 215.528 31.0087 215.528 30.0711C215.528 29.1755 215.409 28.3568 215.171 27.6151C214.948 26.8734 214.605 26.2297 214.143 25.6839C213.695 25.1381 213.128 24.7183 212.443 24.4244C211.757 24.1165 210.966 23.9626 210.071 23.9626C208.867 23.9626 207.943 24.1375 207.3 24.4874C206.67 24.8372 206.082 25.2711 205.536 25.7889Z" fill="white"/>
<path d="M264.121 16.7187L269.296 11.5439M269.296 11.5439H264.917M269.296 11.5439V15.9226" stroke="white" stroke-width="1.19417"/>
<path d="M277.656 3.18462L272.481 8.35938M272.481 8.35938H276.86M272.481 8.35938V3.98073" stroke="white" stroke-width="1.19417"/>
<rect y="62.7964" width="53.3398" height="3.18447" rx="1.59223" fill="#FC5200"/>
<rect x="54.9316" y="62.7964" width="55.7282" height="3.18447" rx="1.59223" fill="#64635E"/>
<rect x="112.252" y="62.7964" width="54.1359" height="3.18447" rx="1.59223" fill="#64635E"/>
<rect x="167.98" y="62.7964" width="56.5243" height="3.18447" rx="1.59223" fill="#64635E"/>
<rect x="226.098" y="62.7964" width="54.932" height="3.18447" rx="1.59223" fill="#64635E"/>
</svg>
